<?xml version="1.0" encoding="utf-8"?>
<!-- Generator: Adobe Illustrator 22.1.0, SVG Export Plug-In . SVG Version: 6.00 Build 0)  -->
<svg version="1.1" id="eaf2d989-45f6-4b5a-b963-815c55e353a4"
	 xmlns="http://www.w3.org/2000/svg" xmlns:xlink="http://www.w3.org/1999/xlink" x="0px" y="0px" viewBox="0 0 997 808"
	 style="enable-background:new 0 0 997 808;" xml:space="preserve">
<style type="text/css">
	.st0{opacity:0.1;fill:#2391A5;enable-background:new    ;}
	.st1{fill:#EC8C9C;}
	.st2{fill:#565388;}
	.st3{opacity:0.1;enable-background:new    ;}
	.st4{fill:#F4E92F;}
	.st5{fill:#603456;}
	.st6{fill:#535461;}
	.st7{fill:#D3D3D3;}
	.st8{fill:#EDF8F9;}
	.st9{fill:#DFE5EE;}
	.st10{opacity:5.000000e-02;enable-background:new    ;}
	.st11{fill:#C52F41;}
	.st12{fill:#2391A5;}
</style>
<path class="st0" d="M260.6,0.9c93,12.7,168.5,101.2,252.3,156.5c18.7,12.3,38.2,23.1,58.9,26.4c68.5,10.6,131.7-63.1,200.6-57.1
	c55.8,4.9,103.1,64,123.2,133.5s17,147.3,5.8,220.3c-17.5,114-56.1,226.1-123.5,300.3c-11.1,12.2-23.5,23.7-37.8,26.5
	c-23.8,4.7-45.8-15.5-66.4-32.1c-92.9-75.2-210.3-94.3-314-51.1c-35.1,14.6-68.7,36-104.6,46.5c-69.2,20.3-147.5-5.3-194.5-76
	S6,507.8,50.7,434.6c18.7-30.5,44.4-52.1,64.1-81.6c49.3-74,31.1-148.8,25-235.6C133.9,31.9,206.3-6.5,260.6,0.9z"/>
<path class="st1" d="M446.9,538.5c-0.1,1.5,1,2.8,2.6,2.9c0.1,0,0.1,0,0.3,0c11.6,0,53.3-0.9,67.6-12.8c16.7-13.9-15.6-9-15.6-9
	c-21-4.9-24-12.2-24.4-14.9c0,0,0,0,0-0.1c0-0.4,0-0.8,0-1.1l-0.9-0.5l-3.2-1.9l-23.8,7.1l-0.5,5.6L446.9,538.5z"/>
<path class="st1" d="M292,487.9l0.4,6.1l-0.3,28.6c0,0,27.7,23.5-1.7,16.5l-10.6-1c-2.3-0.3-4.4-1.6-5.3-3.8l-20.4-45.6
	c-0.8-1.8-0.5-3.8,0.6-5.3c3.3-4.4,10.7-12.7,17.7-11.1C282.1,474.3,292,487.9,292,487.9z"/>
<path class="st2" d="M269.2,472.8l23.2,21.1l3.2-5.4l2.4-4.3l9.8-16.6c15.8-21.6,65.6-46.5,65.6-46.5c10.6-4.3,14.6-8.6,16.1-11.1
	c1.2-2,2.4-4.1,3.7-5.8c3.6-5.4,6.6-11.3,8.8-17.3c2.1-5.6,3.7-11.3,5-17.1c1.2-5.1,1.9-9.4,2.3-12.4c0.4-2.7,0.5-4.3,0.5-4.3
	l-3.6-12.8L395.1,300l-41.9-2c0,0-0.3,23.3-0.1,44.6c0,4.1,0,8,0,11.6c0,4.7,0.1,9,0.1,12.5c0.1,4.4,0.3,7.7,0.4,9.2
	c0.3,1.8,0.3,3.7,0.3,5.6c-0.3,7-3.3,13.8-14.4,17.3c-13.9,4.4-38.9,28.1-41.2,39c-1.5,7.2-13.7,20.1-21.8,28.2
	c-1.9,1.9-3.6,3.5-4.9,4.8C270.1,471.9,269.2,472.8,269.2,472.8z"/>
<path class="st3" d="M269.2,472.8l23.2,21.1l3.2-5.4l2.4-4.3l9.8-16.6c15.8-21.6,65.6-46.5,65.6-46.5c10.6-4.3,14.6-8.6,16.1-11.1
	c1.2-2,2.4-4.1,3.7-5.8c3.6-5.4,6.6-11.3,8.8-17.3c2.1-5.6,3.7-11.3,5-17.1c1.2-5.1,1.9-9.4,2.3-12.4c0.4-2.7,0.5-4.3,0.5-4.3
	l-3.6-12.8L395.1,300l-41.9-2c0,0-0.3,23.3-0.1,44.6c0,4.1,0,8,0,11.6c0,4.7,0.1,9,0.1,12.5c0.1,4.4,0.3,7.7,0.4,9.2
	c0.3,1.8,0.3,3.7,0.3,5.6c-0.3,7-3.3,13.8-14.4,17.3c-13.9,4.4-38.9,28.1-41.2,39c-1.5,7.2-13.7,20.1-21.8,28.2
	c-1.9,1.9-3.6,3.5-4.9,4.8C270.1,471.9,269.2,472.8,269.2,472.8z"/>
<path class="st3" d="M449.1,513.7h0.6l27.7-9.1c0,0,0,0,0-0.1c-0.3-0.5-0.5-1-0.8-1.6l-3.2-1.9l-23.8,7.1L449.1,513.7z"/>
<path class="st2" d="M358.6,264.6l-4.1,5.4c0,0,0.5,6.7-2.1,10.8c-2.7,4.1-12.1,36.6,32.3,45.8c0,0,25.3,42.4,42.9,59.1l6.8,12.5
	c0,0,1.4,14.7,0,21.8s-4.5,29.1,6.2,43.8c0,0,9.3,34.9,7.9,48.7h1.2l27.7-9.1l0,0c-3.3-6.5-5.2-13.7-5.3-21l-0.3-19.2v-70.1
	c0-8-1.3-16-3.7-23.5l0,0c-1.3-4.1-2.1-8.2-2.1-12.4c-0.1-8.7-1.2-25.7-7.2-38.7c-3-6.5-5.8-12.9-8.4-19.6
	c-4.3-11.1-10.3-25.7-14.2-28.9l-5.9-11.1l-32,3L358.6,264.6z"/>
<path class="st1" d="M387.2,122.3c0,0,38.9,23.7,35.6,17.1c-1.4-2.8,0.5-9.2,3.2-15.8c1.8-4.4,4-8.9,5.7-12.3s3.2-5.9,3.2-5.9
	s-40.1-23.8-38.7-14.7c0.3,2.9,0,5.9-0.8,8.9c-0.5,2.4-1.3,4.9-2.1,7.5C390.6,114.8,387.2,122.3,387.2,122.3z"/>
<path class="st3" d="M398.7,96.4c5.4,8.2,11.5,16.6,22.3,16.6c3.6,0,7.2-0.6,10.7-1.9c1.8-3.5,3.2-5.9,3.2-5.9s-40.1-23.8-38.7-14.7
	C396.6,92.6,399.6,93,398.7,96.4z"/>
<path class="st1" d="M390.6,82c0,16.5,13.7,29.9,30.4,29.9c16.7,0,30.4-13.4,30.4-29.9l0,0c0-2.8-0.4-5.6-1.2-8.4
	c-4.6-15.8-21.5-24.9-37.8-20.4C399.6,56.9,390.7,68.7,390.6,82L390.6,82z"/>
<path class="st3" d="M387.2,122.3c0,0,38.9,23.7,35.6,17.1c-1.4-2.8,0.5-9.2,3.2-15.8c-7.7-12.5-24.7-15.8-32.7-16.7
	C390.6,114.8,387.2,122.3,387.2,122.3z"/>
<path class="st3" d="M389,110c0,0,25.1-1.4,34.4,17.2c-0.6,4.7,0.6,9.4,3.6,13c0,0,23.1,17,16,58.4c-4.1,24.3-6.4,49-6.8,73.7
	c0,0-5.9-5.4-18.9,0c-12.9,5.4-62.9,0-62.9,0s5.3-49.9,0.8-59s-1.8-56.7,4-66.6c3.9-6.7,14.6-15.6,22.3-22.5
	C385.7,120.6,388.4,115.6,389,110L389,110z"/>
<path class="st4" d="M389,107.6c0,0,28.7,0.4,38,19c0,0-4.9,5.4,0,11.3c0,0,23.1,17,16,58.4c-4.1,24.3-6.4,49-6.8,73.7
	c0,0-5.9-5.4-18.9,0c-12.9,5.4-62.9,0-62.9,0s5.3-49.9,0.8-59s-1.8-56.7,4-66.6c3.9-6.6,14.6-15.6,22.3-22.5
	C385.7,118.2,388.4,113.2,389,107.6L389,107.6z"/>
<path class="st1" d="M391.1,285.7l3.2,6.7l-2.7,12.8c-2.1,10.5-7,20.3-14,28.5c-7.1,8.1-15.6,13.5-20,0.8c-5.4-16-1.2-23.9,2.3-27.5
	c3-3.2,5.7-6.6,8.1-10.3c3.5-4.9,8.2-10.8,13.4-12.8C391,280.4,391.1,285.7,391.1,285.7z"/>
<path class="st3" d="M409.1,202.9l0.1,9.6l-1.7,18.1c-3.3,7.2-6.1,14.7-7.9,22.4c-3.6,14.2-4,41.8-4,41.8s-19.1-6.1-22.8-4.2
	c0,0-1.2-41.1,2.8-54.2c3.9-12.9,2.3-30.5,2.3-30.5L409.1,202.9z"/>
<path class="st3" d="M390.6,82c0,9.1,4.3,17.7,11.5,23.3l1.5-0.5c0.8-0.3,1.4-0.5,2.1-1c0.6-0.6,1.2-1.5,1.4-2.4
	c1.2-3.3,1.4-6.7,2.7-10c1.3-3.2,3.7-6.3,7.2-6.8c0.4-0.1,0.8,0,1.2,0.1c0.4,0.4,0.6,0.8,0.6,1.3c0.9,2.9,3.1,5.3,6.1,6.5
	c1.8,0.6,5,1.1,6.7,0c1.5-1,1.4-2.8,1.8-4.4c1-4.4,3.2-8.9,7.6-10.9c1.5-0.6,3.1-1.1,4.6-1.5c1.7-0.5,3.2-1.1,4.6-1.9
	c-4.6-15.8-21.5-24.9-37.8-20.4C399.6,57.1,390.7,68.7,390.6,82L390.6,82z"/>
<path class="st5" d="M441,75.8c1.5-0.6,3.1-1.1,4.6-1.5c3.6-0.9,6.8-2.9,9.3-5.7c2.4-2.8,3.2-6.7,2.2-10.3c-1.2-3.2-4.3-5.6-5-9
	c-0.1-1.4-0.4-2.7-0.8-3.9c-0.5-1.3-2.2-2.2-3.3-1.4c-0.1,1.5,0.3,3,0.9,4.4c-1.9-1-3.6-2.5-4.8-4.3c-0.5-1-1.3-2-2.1-2.9
	c-0.9-0.9-2.2-1-3.2-0.4c0.4,1.3-0.3,2.5-1.5,3s-2.4,0.6-3.7,0.5c-3.3,0-6.8-0.4-10-1.1c-3.2-0.9-6.3-2.4-9.5-2.4
	c-3.3,0-7,2.3-6.8,5.6c-3.3-1.1-7.1,0.1-10.4,1.4c-3.3,1.3-6.8,2.7-9.5,5.1c-2.7,2.4-4.6,5.8-4,9.4c0.1,0.6,0.3,1.1,0,1.8
	c-0.3,0.5-0.6,0.9-1.2,1.3c-2.4,2.3-2.6,6.1-2.4,9.4c0,1,0.1,2,0.5,3c0.5,1,1.4,1.6,1.7,2.7c0.8,2.4-2.2,4.4-2.4,6.8
	c0,1.5,0.5,3,1.5,4.3l7.6,12c0.4,0.8,0.9,1.4,1.5,2c1.9,1.5,4.8,0.8,7.2,0l6.3-2.2c0.8-0.3,1.4-0.5,2.1-1c0.6-0.6,1.2-1.5,1.4-2.4
	c1.2-3.3,1.4-6.7,2.7-10c1.3-3.3,3.7-6.3,7.2-6.8c0.4-0.1,0.8,0,1.2,0.1c0.4,0.4,0.6,0.8,0.6,1.3c0.9,3,3.1,5.3,6.1,6.5
	c1.8,0.6,5,1.1,6.7,0c1.5-1,1.4-2.8,1.8-4.4C434.4,82.4,436.6,77.8,441,75.8z"/>
<path class="st3" d="M412.2,142.9c0,0,20.5-3,8.9,44.8c0,0-9.7,24.2-9.9,27.7c0,0-18.3-13.3-32.9-3.2c0,0-2.8-29.2,4.5-43
	C382.9,169.2,387.9,135.8,412.2,142.9z"/>
<path class="st6" d="M271.7,470.4l24,18l2.4-4.3l-21.5-18.5C274.8,467.5,272.9,469.3,271.7,470.4z"/>
<path class="st3" d="M374.9,163.2c0,0-7,27.5-4.1,37.3"/>
<polygon class="st3" points="292.4,493.9 292.4,495.2 267.7,472.6 269.2,472.8 "/>
<path class="st3" d="M424.7,132.8c0,0-30.9-9-37.5-16.1"/>
<polygon class="st7" points="439.5,228.9 405.8,228.9 356.1,228.9 356.1,241.6 437.5,241.6 "/>
<polygon class="st7" points="439.5,247.7 405.1,247.7 354.6,247.7 354.6,260.5 437.5,260.5 "/>
<path class="st2" d="M408,200.5l2,12.5l-3.6,15.2c-3.3,7.2-6.1,14.7-7.9,22.4c-3.6,14.2-4,41.8-4,41.8s-17.7-4.7-21.4-2.8
	c0,0-2.4-42.7,1.4-55.6c3.9-12.9,2.3-30.5,2.3-30.5L408,200.5z"/>
<path class="st2" d="M411.1,140.5c0,0,20.5-3,8.9,44.8c0,0-9.7,24.2-9.9,27.7c0,0-18.3-13.3-32.9-3.2c0,0-2.8-29.2,4.5-43
	C381.7,166.8,386.6,133.3,411.1,140.5z"/>
<polygon class="st8" points="357,228.9 356.1,241.6 351,237.3 352.4,228.9 "/>
<polygon class="st8" points="355.8,247.3 354.9,260.5 349.7,256.1 351.2,247.3 "/>
<polygon class="st8" points="439.9,247 437.1,262.9 437,263.7 436.3,263.4 437.1,247.5 439.7,245.4 "/>
<polygon class="st8" points="442.8,227.2 437.5,241.6 438.9,227.2 "/>
<title>track and field</title>
<polygon class="st9" points="500.3,566.7 500.3,554.5 751.4,484.1 796.3,479 796.3,490.2 546.3,580 "/>
<polygon class="st10" points="500.3,566.7 500.3,554.5 751.4,484.1 796.3,479 796.3,490.2 546.3,580 "/>
<polygon class="st9" points="500.3,554.5 751.4,471.8 795.3,479 546.3,567.8 "/>
<rect x="512.2" y="367.7" class="st9" width="16.3" height="189.8"/>
<rect x="735.1" y="323.8" class="st9" width="16.3" height="166.4"/>
<polygon class="st9" points="792.2,271.8 792.2,322.8 588.4,368.4 564.2,373.7 504.4,387.1 487.1,382 487.1,322.8 579.6,305.2 
	602.6,300.8 770.8,268.7 "/>
<polygon class="st10" points="792.2,271.8 792.2,322.8 588.4,368.4 564.2,373.7 504.4,387.1 487.1,382 487.1,322.8 579.6,305.2 
	602.6,300.8 770.8,268.7 "/>
<polygon class="st10" points="555.5,367.7 555.5,377.7 539.1,381.4 539.1,367.7 "/>
<polygon class="st10" points="751.4,323.8 751.4,334 735.1,337.6 735.1,323.8 "/>
<polygon class="st9" points="792.2,273.6 792.2,324.6 709.5,343.1 685.4,348.5 588.4,370.2 564.2,375.5 504.4,388.9 505.4,330.7 
	588.6,314.2 611.8,309.5 611.8,309.5 706.9,290.6 730.1,286 "/>
<polygon class="st11" points="611.8,308.6 588.4,369.3 564.2,374.6 588.6,313.3 579.6,306.1 602.6,301.7 "/>
<polygon class="st11" points="731.2,285 709.5,341.3 685.4,346.7 708,289.7 706.9,288.8 699,282.5 722,278.1 730.1,284.2 "/>
<polygon class="st10" points="542.7,554.2 559,550.4 559,554.2 542.7,558.1 "/>
<polygon class="st10" points="737.6,486.9 754,483 754,486.9 737.6,490.7 "/>
<polygon class="st9" points="211.6,667.6 211.6,653.2 501.4,570 553.2,564 553.2,577.3 264.6,683.3 "/>
<polygon class="st10" points="211.6,667.6 211.6,653.2 501.4,570 553.2,564 553.2,577.3 264.6,683.3 "/>
<polygon class="st9" points="211.6,653.2 501.4,555.6 552,564 264.6,668.8 "/>
<rect x="256.4" y="432.7" class="st9" width="18.9" height="224.1"/>
<polygon class="st9" points="548.5,319.4 548.5,379.7 313.2,433.4 285.4,439.8 216.3,455.6 196.3,449.5 196.3,379.7 303.1,358.8 
	329.6,353.6 523.7,315.8 "/>
<polygon class="st10" points="548.5,319.4 548.5,379.7 313.2,433.4 285.4,439.8 216.3,455.6 196.3,449.5 196.3,379.7 303.1,358.8 
	329.6,353.6 523.7,315.8 "/>
<polygon class="st10" points="275.2,432.7 275.2,444.5 256.4,448.8 256.4,432.7 "/>
<polygon class="st9" points="548.5,321.2 548.5,379.5 453,400.6 425.2,406.8 313.2,431.6 285.4,437.7 216.3,453 217.5,386.5 
	313.4,367.6 340.3,362.3 340.3,362.3 450,340.6 476.8,335.4 "/>
<polygon class="st11" points="340.3,361.9 313.2,433.4 285.4,439.8 313.4,367.3 303.1,358.8 329.6,353.6 "/>
<polygon class="st11" points="478.1,335.1 453,401.5 425.2,407.8 451.2,340.5 450,339.5 440.9,332 467.4,326.9 476.8,334 "/>
<polygon class="st10" points="1040.6,280.3 1040.6,288.4 1027.6,291.3 1027.6,280.3 "/>
<polygon class="st10" points="794.9,314.6 794.9,323.1 781.4,326.2 781.4,314.6 "/>
<path class="st12" d="M238.8,631.9c2.3-2.2,4.5-4.7,5.2-7.8s-0.6-6.8-3.6-8c-3.3-1.3-6.9,1-9.6,3.4s-5.8,5-9.3,4.5
	c3.7-3.4,5.4-8.4,4.4-13.3c-0.2-1-0.6-1.9-1.2-2.7c-1.9-2-5.2-1.1-7.4,0.4c-7,5-9,14.5-9,23.2c-0.7-3.1-0.1-6.3-0.1-9.5
	s-0.9-6.7-3.6-8.4c-1.7-0.9-3.6-1.3-5.5-1.3c-3.2-0.1-6.7,0.2-8.9,2.5c-2.7,2.9-2,7.7,0.4,10.9s5.9,5.2,9.2,7.3
	c2.6,1.6,4.9,3.7,6.5,6.2c0.2,0.4,0.4,0.7,0.5,1.1h19.7C231,638.1,235.1,635.2,238.8,631.9z"/>
<path class="st12" d="M677.3,491.2c1.8-1.5,3.2-3.5,3.8-5.8c0.5-2.3-0.5-5-2.7-5.9c-2.5-0.9-5.1,0.8-7.1,2.5s-4.3,3.7-6.9,3.3
	c2.7-2.5,4-6.2,3.2-9.8c-0.1-0.7-0.4-1.4-0.9-2c-1.4-1.5-3.8-0.8-5.5,0.3c-5.2,3.7-6.7,10.7-6.7,17.1c-0.5-2.3-0.1-4.7-0.1-7
	s-0.7-5-2.6-6.2c-1.2-0.7-2.6-1-4-1c-2.3-0.1-4.9,0.2-6.5,1.9c-2,2.1-1.5,5.7,0.3,8s4.3,3.8,6.8,5.4c1.9,1.2,3.6,2.7,4.8,4.6
	c0.1,0.3,0.3,0.5,0.4,0.8h14.7C671.5,495.8,674.5,493.7,677.3,491.2z"/>
<path class="st12" d="M742.3,523c1.8-1.5,3.2-3.5,3.8-5.8c0.5-2.3-0.5-5-2.7-5.9c-2.5-0.9-5.1,0.8-7.1,2.5s-4.3,3.7-6.9,3.3
	c2.7-2.5,4-6.2,3.2-9.8c-0.1-0.7-0.4-1.4-0.9-2c-1.4-1.5-3.8-0.8-5.5,0.3c-5.2,3.7-6.7,10.7-6.7,17.1c-0.5-2.3-0.1-4.7-0.1-7
	s-0.7-5-2.6-6.2c-1.2-0.7-2.6-1-4-1c-2.3-0.1-4.9,0.2-6.5,1.9c-2,2.1-1.5,5.7,0.3,8s4.3,3.8,6.8,5.4c1.9,1.2,3.6,2.7,4.8,4.6
	c0.1,0.3,0.3,0.5,0.4,0.8h14.7C736.5,527.6,739.5,525.5,742.3,523z"/>
</svg>
