<svg id="f4e8ffab-e296-42af-a3d9-fe339540abe9" xmlns="http://www.w3.org/2000/svg" width="1114" height="593.55" viewBox="0 0 1114 593.55">
  <title>undraw_vehicle_sale_v7fm</title>
  <ellipse cx="557" cy="419.77" rx="557" ry="173.78" style="fill: #1590a5;opacity: 0.10000000149011612;isolation: isolate"/>
  <g style="opacity: 0.800000011920929">
    <path d="M404.79,35.38c9.44,13.24,16.69,51.81,18.71,63.43l16.88-.35c-.88-10-20.51-50.59-26-61.73C411.37,36.25,408.13,35.77,404.79,35.38Z" transform="translate(0 0)" style="fill: #65617d"/>
    <rect x="192.5" y="28.36" width="10.53" height="7.48" transform="translate(161.94 229.23) rotate(-88.92)" style="fill: #dce0ed"/>
    <path d="M194.13,26.77l-.06,3.42a5.54,5.54,0,0,0,1.62.25l5.85.06.07-3.59Z" transform="translate(0 0)" style="opacity: 0.10000000149011612;isolation: isolate"/>
    <path d="M205.27.13,198.21,0a8.48,8.48,0,0,0-8,5.14c-2.16,5-4.06,13.11.38,21.27a5.86,5.86,0,0,0,5.07,3l9,.09Z" transform="translate(0 0)" style="fill: #dce0ed"/>
    <ellipse cx="204.98" cy="14.83" rx="14.71" ry="7.56" transform="translate(186.29 219.5) rotate(-88.92)" style="fill: #f0f0f4"/>
    <rect x="259.58" y="29.08" width="9.22" height="7.48" transform="translate(226.39 296.35) rotate(-88.92)" style="fill: #dce0ed"/>
    <path d="M260.54,28.14l-.05,2.93a5.54,5.54,0,0,0,1.62.25l5.85.07.06-3.1Z" transform="translate(0 0)" style="opacity: 0.10000000149011612;isolation: isolate"/>
    <path d="M271.68,1.51l-7.06-.13a8.46,8.46,0,0,0-7.94,5.14c-2.17,5.05-4.07,13.11.38,21.26a5.82,5.82,0,0,0,5.06,3l9,.09Z" transform="translate(0 0)" style="fill: #dce0ed"/>
    <ellipse cx="271.4" cy="16.21" rx="14.71" ry="7.56" transform="translate(250.07 287.25) rotate(-88.92)" style="fill: #f0f0f4"/>
    <path d="M269.7,6.85s2.78.5,1.26,4.15a25.84,25.84,0,0,0-1.78,5.55s-2.82,1.4-2.62-3.4S269.7,6.85,269.7,6.85Z" transform="translate(0 0)" style="fill: #dce0ed"/>
    <ellipse cx="549.03" cy="222.29" rx="48.36" ry="44.12" transform="translate(316.43 767.04) rotate(-88.92)" style="fill: #636780"/>
    <path d="M533.38,176.67c23.06,2,41,23.34,40.46,49-.39,20.71-12.6,38.15-29.43,44.72-23.06-2-40.94-23.34-40.46-49C504.34,200.68,516.56,183.24,533.38,176.67Z" transform="translate(0 0)" style="opacity: 0.10000000149011612;isolation: isolate"/>
    <ellipse cx="205.8" cy="110.12" rx="46.69" ry="35.81" transform="translate(91.83 313.81) rotate(-88.92)" style="fill: #636780"/>
    <path d="M216.66,65.59c14.74,6,25.25,24.07,24.85,45.28-.43,22.66-13.17,41.31-29.67,45.24-14.74-6-25.25-24.07-24.84-45.28C187.42,88.17,200.16,69.52,216.66,65.59Z" transform="translate(0 0)" style="opacity: 0.10000000149011612;isolation: isolate"/>
    <path d="M340.49,102.7l-.34-17s3.46-7.25,6.79-7.85,11-.87,11-.87,5.52,24.45,1.39,31.69S340.49,102.7,340.49,102.7Z" transform="translate(0 0)" style="fill: #65617d"/>
    <path d="M340.49,102.7l-.34-17s3.46-7.25,6.79-7.85,11-.87,11-.87,5.52,24.45,1.39,31.69S340.49,102.7,340.49,102.7Z" transform="translate(0 0)" style="opacity: 0.10000000149011612;isolation: isolate"/>
    <path d="M401.83,102s2.5-23.46-10.4-24.13c-1.66-.08-3.32-.15-5-.35-8.93-1-33.3-3.38-30.49,2.26,0,0,5.43,20.54,1.35,25.62Z" transform="translate(0 0)" style="fill: #65617d"/>
    <path d="M218,142.14l-17.33.17s-2.38-32-3.33-34.46-1.23-14.48,2-16.17,14.15-3.59,14.15-3.59l7.63,18.34.31,16.46Z" transform="translate(0 0)" style="fill: #65617d"/>
    <path d="M218,142.14l-17.33.17s-2.38-32-3.33-34.46-1.23-14.48,2-16.17,14.15-3.59,14.15-3.59l7.63,18.34.31,16.46Z" transform="translate(0 0)" style="opacity: 0.10000000149011612;isolation: isolate"/>
    <path d="M260.87,90l.15-3.55a2.08,2.08,0,0,0-2-2.14h-.1c-8.59.2-39.86,1.11-45.38,3.8,0,0,5.14,44.59-1.66,55.06l1.57,35.68,76.61-4.29Z" transform="translate(0 0)" style="fill: #65617d"/>
    <path d="M267.91,33.91c-2.12-.25-4.64-.52-7.46-.8l-.08,4.25,7.48.15Z" transform="translate(0 0)" style="opacity: 0.10000000149011612;isolation: isolate"/>
    <path d="M193.94,36.77v.54l7.48.14.06-3.24A32.41,32.41,0,0,0,193.94,36.77Z" transform="translate(0 0)" style="opacity: 0.10000000149011612;isolation: isolate"/>
    <polygon points="154.43 142.06 165.73 142.44 189.88 100.46 193.91 93.45 191.26 75.45 188.88 79.75 154.43 142.06" style="fill: #dce0ed"/>
    <polygon points="257.6 91.83 262.12 98.89 276.38 80.35 282.9 71.86 279.18 66.64 276.19 70.13 257.6 91.83" style="fill: #dce0ed"/>
    <path d="M276.18,70.13c0,.36-.05.73-.08,1.1l.28,9.12,6.52-8.49-3.72-5.22Z" transform="translate(0 0)" style="opacity: 0.10000000149011612;isolation: isolate"/>
    <polygon points="188.88 79.75 189.88 100.46 193.91 93.45 191.26 75.45 188.88 79.75" style="opacity: 0.10000000149011612;isolation: isolate"/>
    <path d="M289.16,83.61s6.37-41.56-13.82-48.18a4.38,4.38,0,0,0-.8-.17c-4.66-.66-48.13-6.5-70.87-1,0,0-15.49,2-15.49,10.34l4.9,101.64,11.13.21-2.39-67.19s-4.76-29.34,4.08-31.16,49-4.4,63-.14c0,0,10.35-2.13,8.21,23.25l.4,13.64Z" transform="translate(0 0)" style="fill: #dce0ed"/>
    <path d="M255,95.35a6.41,6.41,0,0,1,2.72-5.68c3.16-2.31,12.85-7.24,12.85-7.24l3.11.31,8.91,23.35L281,155.3l-17.18,20.47Z" transform="translate(0 0)" style="fill: #65617d"/>
    <path d="M255,95.35a6.41,6.41,0,0,1,2.72-5.68c3.16-2.31,12.85-7.24,12.85-7.24l3.11.31,8.91,23.35L281,155.3l-17.18,20.47Z" transform="translate(0 0)" style="opacity: 0.10000000149011612;isolation: isolate"/>
    <path d="M321.18,148.21l.62-50.52s1.87-19.57-9.84-20.13c0,0-27.63-.32-39.7,3.35a2.67,2.67,0,0,0-1.79,3.34,2.28,2.28,0,0,0,.21.51c2.31,4.2,6.13,15.28,7.54,43.56l-.57,30.28Z" transform="translate(0 0)" style="fill: #65617d"/>
    <polygon points="262.3 179.38 312.58 179.16 312.63 179.16 337.35 179.05 335.1 145.98 321.39 146.22 277.59 155.11 263.86 175.79 262.3 179.38" style="fill: #65617d"/>
    <polygon points="262.3 179.38 312.58 179.16 312.63 179.16 337.35 179.05 335.1 145.98 321.39 146.22 277.59 155.11 263.86 175.79 262.3 179.38" style="opacity: 0.10000000149011612;isolation: isolate"/>
    <polygon points="262.3 179.38 312.58 179.16 313.83 157.04 277.59 155.11 263.86 175.79 262.3 179.38" style="fill: #65617d"/>
    <path d="M312.63,179.16l24.72-.11L335.1,146s-8,12.19-21.27,11.06Z" transform="translate(0 0)" style="fill: #fff;opacity: 0.10000000149011612;isolation: isolate"/>
    <path d="M134.84,202.52c.82,9.49,7.58,8.12,7.58,8.12l1.26-.09,12.47-.89-.22-14.72a54.11,54.11,0,0,0-12.65.52C138.6,196.34,134.48,198.31,134.84,202.52Z" transform="translate(0 0)" style="fill: #dce0ed"/>
    <path d="M134.84,202.52c.82,9.49,7.58,8.12,7.58,8.12l1.26-.09a12.8,12.8,0,0,0,2.12-7.07,12,12,0,0,0-2.52-8C138.6,196.34,134.48,198.31,134.84,202.52Z" transform="translate(0 0)" style="opacity: 0.10000000149011612;isolation: isolate"/>
    <path d="M308.62,109.49c-.29,15.37,8.7,28,20.07,28.22s20.84-12.07,21.13-27.44-8.7-28-20.07-28.22S308.91,94.12,308.62,109.49Zm7.77,2c.21-11.15,7.41-20.06,16.08-19.89s15.53,9.33,15.32,20.48-7.41,20-16.08,19.89-15.53-9.35-15.32-20.5Z" transform="translate(0 0)" style="fill: #636780"/>
    <polygon points="328.06 118.42 318.25 127.71 314.92 119.17 329.03 111.29 328.06 118.42" style="fill: #636780"/>
    <polygon points="315.63 24.42 307.22 25.29 304.04 28.93 308.35 50.25 317.73 84.65 323.87 108.26 328.23 122.61 330.82 141.53 333.52 154.57 342.2 163.58 360.59 142.69 363.68 135.66 371.03 121.35 352.9 112.45 332.88 110.3 323.9 85.94 316.77 57.78 315.63 24.42" style="fill: #1590a5"/>
    <polyline points="483.43 128.83 492.65 221.08 354.7 212.66 371.5 167.77 398.41 150.99 337.59 150.84 337.73 125.58 362.42 120.73 412.01 117.68 449.25 116.72 484.59 129.02" style="fill: #65617d"/>
    <polyline points="483.43 128.83 492.65 221.08 354.7 212.66 371.5 167.77 398.41 150.99 337.59 150.84 337.73 125.58 362.42 120.73 412.01 117.68 449.25 116.72 484.59 129.02" style="opacity: 0.10000000149011612;isolation: isolate"/>
    <path d="M293.07,217c-.43,22.87,6.78,43.84,27.91,42,26.6-.07,29-18,29.46-40.88S338.36,178,322.51,177.69,293.51,194.13,293.07,217Z" transform="translate(0 0)" style="fill: #636780"/>
    <path d="M292.91,217c.33-17.71,8.3-31.77,19.23-37.07,13.86,2.91,24.24,19.1,23.85,40-.35,18.74-2.05,34.17-17.3,39.16C299.2,259.43,292.49,239.13,292.91,217Z" transform="translate(0 0)" style="opacity: 0.10000000149011612;isolation: isolate"/>
    <polygon points="266.65 180.59 274.59 190.03 260.04 187.25 249.32 177.02 239.95 157.37 226.4 148.71 192.69 152.64 161.56 153.24 150.26 142.82 163.11 141.32 176.09 141.27 208.69 141.15 247.49 140.85 255.05 162.23 260.82 176.94 266.65 180.59" style="fill: #1590a5"/>
    <path d="M154.36,216.35c.65,1,22.35,4.75,22.35,4.75l59.93,12.1L340,236.65l12.32-10.08,6.35,1.26.26,0,84.79,16.71,1.39-.17,23.25-2.87,121.46-15-1-17.61-.6-10.39L587,177l-1.06-5.67-10.76-1.19-5-.56-78.48-8.7-10.36-1.08-5.75-.64-56-8.7-81.94.44.14-25.26L307.22,25.29c-7.17,1-7.09,5.85-7.09,5.85l25.8,94.38-.75,57.66c-57.47,4.71-59.08-7.82-68.24-3.78l-10.3-35.26-96.37-1.32C146.36,147.4,154.36,216.35,154.36,216.35Z" transform="translate(0 0)" style="fill: #65617d"/>
    <polygon points="394.43 168.54 362.62 233.59 352.25 236.71 349.96 226.03 362.11 189.86 374.31 168.99 394.43 168.54" style="fill: #65617d"/>
    <polygon points="394.43 168.54 362.62 233.59 352.25 236.71 349.96 226.03 362.11 189.86 374.31 168.99 394.43 168.54" style="opacity: 0.15000000596046448;isolation: isolate"/>
    <ellipse cx="413.54" cy="241.54" rx="62.82" ry="55.38" transform="translate(163.78 650.17) rotate(-88.85)" style="fill: #636780"/>
    <path d="M394.32,181.93c28.94,2.56,51.37,30.28,50.74,63.65-.51,26.9-15.85,49.57-37,58.12-28.93-2.57-51.37-30.29-50.74-63.66C357.85,213.14,373.2,190.48,394.32,181.93Z" transform="translate(0 0)" style="opacity: 0.10000000149011612;isolation: isolate"/>
    <path d="M563.44,134.17l2.49,13,7.64,39.74,36.13-2.81s2.28-6.6-3.32-9.2c0,0-1.43-22.53-8-29.74a6.76,6.76,0,0,0-2.58-1.87Z" transform="translate(0 0)" style="fill: #65617d"/>
    <path d="M565.93,147.14l7.64,39.74,36.13-2.81s2.28-6.6-3.32-9.2c0,0-1.43-22.53-8-29.74Z" transform="translate(0 0)" style="fill: #fff;opacity: 0.10000000149011612;isolation: isolate"/>
    <path d="M482.13,136.12c-4.8,7.72,5.13,79.88,5.13,79.88l88.84-13-2-63c-1.62-11.33-8.23-12.79-8.23-12.79-30.94-16.37-102.65-21-102.65-21-65.51,1.25-125.52,19.4-125.52,19.4C412.38,115.52,482.13,136.12,482.13,136.12Z" transform="translate(0 0)" style="fill: #65617d"/>
    <path d="M487.26,216l88.84-13-2-63c-1.62-11.33-8.23-12.79-8.23-12.79s-64.52-7.37-83.77,8.89C477.33,143.84,487.26,216,487.26,216Z" transform="translate(0 0)" style="opacity: 0.10000000149011612;isolation: isolate"/>
    <path d="M496.7,212,571,200.94l-1.62-53.77c-1.35-9.67-6.88-10.91-6.88-10.91s-53.94-6.27-70.05,7.61C488.42,150.46,496.7,212,496.7,212Z" transform="translate(0 0)" style="fill: #65617d"/>
    <ellipse cx="503.62" cy="167.93" rx="18.44" ry="10.14" transform="translate(326.22 668.29) rotate(-88.92)" style="opacity: 0.10000000149011612;isolation: isolate"/>
    <ellipse cx="503.62" cy="167.43" rx="18.44" ry="10.14" transform="translate(326.72 667.8) rotate(-88.92)" style="fill: #dce0ed"/>
    <path d="M502.57,153.77s4.14.74,1.88,6.19a37.37,37.37,0,0,0-2.65,8.26s-4.2,2.08-3.9-5.06S502.57,153.77,502.57,153.77Z" transform="translate(0 0)" style="fill: #f0f0f4"/>
    <ellipse cx="558.07" cy="161.64" rx="17.24" ry="9.47" transform="translate(385.94 716.57) rotate(-88.92)" style="opacity: 0.10000000149011612;isolation: isolate"/>
    <ellipse cx="558.09" cy="161.14" rx="17.24" ry="9.47" transform="translate(386.46 716.1) rotate(-88.92)" style="fill: #dce0ed"/>
    <path d="M557,147.51s4.15.74,1.88,6.18a38.45,38.45,0,0,0-2.65,8.26s-4.19,2.08-3.89-5.06S557,147.51,557,147.51Z" transform="translate(0 0)" style="fill: #f0f0f4"/>
    <path d="M515.56,152.54c.53,6.83,2.9,57.39,2.9,57.39l5.66-.83,3.14-.46,4.19-.62.51-.08,16.5-2.43-2.24-53.63a6.74,6.74,0,0,0-6.66-6.44h-.5c-1.14.08-2.37.17-3.65.29l-1.64.16c-1.58.16-3.22.36-4.82.59-.82.12-1.63.25-2.42.39-1.35.25-2.65.52-3.85.83-.82.21-1.6.44-2.31.69C517.38,149.43,515.42,150.77,515.56,152.54Z" transform="translate(0 0)" style="opacity: 0.10000000149011612;isolation: isolate"/>
    <path d="M539.56,145.44l2.08,60.33,1.83-.13-2.06-59.87A6.49,6.49,0,0,0,539.56,145.44Z" transform="translate(0 0)" style="fill: #65617d"/>
    <path d="M533.77,145.91l1.87,60.86,2.82,0-3.05-61Z" transform="translate(0 0)" style="fill: #65617d"/>
    <path d="M526.53,146.89l3.6,61.11H532v-.09l-3-61.44C528.13,146.62,527.32,146.77,526.53,146.89Z" transform="translate(0 0)" style="fill: #65617d"/>
    <path d="M520.37,148.41l3.75,60.69v.11l3.17-.27v-.3l-4.61-60.87A16.51,16.51,0,0,0,520.37,148.41Z" transform="translate(0 0)" style="fill: #65617d"/>
    <path d="M587.06,196.61s6.7-31.41-7.22-33.3-59.85.62-58.72,13.6,2.25,32.7,2.25,32.7l9.51-1.94s-6.54-29.79,4.57-30.7,38.33-3.51,38.33-3.51,7.38-1.11,2.65,24.85Z" transform="translate(0 0)" style="opacity: 0.10000000149011612;isolation: isolate"/>
    <path d="M587,199.6s6.73-33.41-7.19-35.29-59.84.61-58.72,13.6,2.25,32.7,2.25,32.7l9.51-1.94s-6.54-29.79,4.57-30.7,38.33-3.52,38.33-3.52,7.34.89,2.61,26.85Z" transform="translate(0 0)" style="fill: #dce0ed"/>
    <path d="M340,236.65l12.29.06c9.72-39.37,25-63.68,25-63.68,5-2.57,59.52-1.2,59.52-1.2,5.64,1.1,6.79,19.07,6.79,19.07s-4.9,4.06-.3,6.81c2.06,1.23,8.89,1.58,16.78,1.33,9.8-.33,21.22-1.6,27.14-3.32,10.7-3.13,2.34-9.43,2.34-9.43s-1.46-2-2.25-13a44.25,44.25,0,0,0-5.72-18.21c-.44-.77-.73-1.19-.73-1.19a5.57,5.57,0,0,0-1.92-1.26c-14-6.14-83.11-1.84-83.11-1.84L370,158.44c-.71.27-1.84,2.05-3.24,4.91C358.37,180.53,340,236.65,340,236.65Z" transform="translate(0 0)" style="fill: #65617d"/>
    <path d="M340,236.65l12.29.06c9.72-39.37,25-63.68,25-63.68,5-2.57,59.52-1.2,59.52-1.2,5.64,1.1,6.79,19.07,6.79,19.07s-4.9,4.06-.3,6.81c2.06,1.23,8.89,1.58,16.78,1.33,9.8-.33,21.22-1.6,27.14-3.32,10.7-3.13,2.34-9.43,2.34-9.43s-1.46-2-2.25-13a44.25,44.25,0,0,0-5.72-18.21c-.44-.77-.73-1.19-.73-1.19a5.57,5.57,0,0,0-1.92-1.26c-14-6.14-83.11-1.84-83.11-1.84L370,158.44c-.71.27-1.84,2.05-3.24,4.91C358.37,180.53,340,236.65,340,236.65Z" transform="translate(0 0)" style="opacity: 0.10000000149011612;isolation: isolate"/>
    <path d="M366.78,163.35c23.79-8.73,88.79-2.63,88.79-2.63,7-5.79,20-5.93,25.95-5.65-.44-.77-.73-1.19-.73-1.19a5.57,5.57,0,0,0-1.92-1.26c-14-6.14-83.11-1.84-83.11-1.84L370,158.44C369.31,158.71,368.18,160.49,366.78,163.35Z" transform="translate(0 0)" style="fill: #65617d"/>
    <path d="M451.7,163.14c1.4,5.17,7.16,25.89,7.16,25.89A88.47,88.47,0,0,1,460,199c9.8-.33,21.22-1.6,27.14-3.32,10.7-3.13,2.34-9.43,2.34-9.43s-1.46-2-2.25-13a44.09,44.09,0,0,0-6.45-19.4,5.57,5.57,0,0,0-1.92-1.26C469.6,154.63,450.64,159.22,451.7,163.14Z" transform="translate(0 0)" style="fill: #65617d"/>
    <path d="M451.7,163.14c1.4,5.17,7.16,25.89,7.16,25.89A88.47,88.47,0,0,1,460,199c9.8-.33,21.22-1.6,27.14-3.32,10.7-3.13,2.34-9.43,2.34-9.43s-1.46-2-2.25-13a44.09,44.09,0,0,0-6.45-19.4,5.57,5.57,0,0,0-1.92-1.26C469.6,154.63,450.64,159.22,451.7,163.14Z" transform="translate(0 0)" style="fill: #fff;opacity: 0.10000000149011612;isolation: isolate"/>
    <path d="M307.22,25.29l30.51,100.29L465,107.17,448.19,46.89S445.59,33.13,439,32C439,32,337.25,12.39,307.22,25.29ZM321.38,41c-4.11-13.54,56.34-6.79,56.34-6.79,8.14-.63,17.95.06,27.07,1.16,3.34.41,6.58.87,9.62,1.35,6.78,1.06,12.53,2.2,16,2.92,2.19.45,3.45.74,3.45.74,12,4,17.92,53.94,17.92,53.94.9,5.25-5.31,4-5.31,4H446l-5.66.11-16.84.33-82.3,1.66c-4.85-.59-5.49-6.34-5.49-6.34C333.17,90,321.38,41,321.38,41Z" transform="translate(0 0)" style="fill: #65617d"/>
    <path d="M446,98.35h.4s6.21,1.24,5.31-4c0,0-5.91-50-17.92-53.94,0,0-1.26-.29-3.45-.74C434.61,48.29,448.14,77.88,446,98.35Z" transform="translate(0 0)" style="fill: #65617d"/>
    <path d="M446,98.35h.4s6.21,1.24,5.31-4c0,0-5.91-50-17.92-53.94,0,0-1.26-.29-3.45-.74C434.61,48.29,448.14,77.88,446,98.35Z" transform="translate(0 0)" style="opacity: 0.10000000149011612;isolation: isolate"/>
    <path d="M432.55,221.07a8,8,0,0,0,7.43,4.35l2.54-.06,24-.58,8.64-.21,8-.51L588.79,209l-.6-10.39L576,200.08l-5,.62-74.55,9.23-9.81,1.22-4.76.59-20.1-.53L440,210.64a8.22,8.22,0,0,0-3.22.56,7.84,7.84,0,0,0-4.29,3.93A6.61,6.61,0,0,0,432.55,221.07Z" transform="translate(0 0)" style="opacity: 0.10000000149011612;isolation: isolate"/>
    <path d="M432.53,222.07a8,8,0,0,0,7.43,4.35l35.16-.85,8-.51L595.77,209l8.85-1.27,4.83-.69c9.5-1.82,6.86-11.34,6.86-11.34-.58-4.33-16.79-8.63-22.11-8.56-3.57,0-4.18,5.54-4.18,9.15a28.66,28.66,0,0,0,.13,3.07l-5.27.65-103,12.8L440,211.64a8,8,0,0,0-7.51,4.48A6.6,6.6,0,0,0,432.53,222.07Z" transform="translate(0 0)" style="fill: #dce0ed"/>
    <path d="M601.71,193.23s-4.59,5.39-11.58,6.09C590.13,199.32,593.07,193.23,601.71,193.23Z" transform="translate(0 0)" style="opacity: 0.10000000149011612;isolation: isolate"/>
    <path d="M602.58,208.7s14.79,0,14.64,7.92-9.48,9.13-9.48,9.13L475.18,248.67H437.62s-12.93-10.72.78-15.11l37.87,1.71,126.37-20.71S599.4,210,602.58,208.7Z" transform="translate(0 0)" style="opacity: 0.10000000149011612;isolation: isolate"/>
    <path d="M437.6,249.63h37.56L593,229.29l8.63-1.5,6.06-1s9.33-1.16,9.48-9.13c.11-5.72-7.48-7.31-11.78-7.75a27.27,27.27,0,0,0-2.86-.17c-3.18,1.26.06,5.81.06,5.81l-4.6.76-121.77,20-37.86-1.71C424.68,238.91,437.6,249.63,437.6,249.63Z" transform="translate(0 0)" style="fill: #dce0ed"/>
    <path d="M591.57,202l-7.74-3.64-4-.24-.3,33.57,12.34-2.26,5.22-3.23,2.75-13.91s-.88-5.83-1.37-6.34S591.57,202,591.57,202Z" transform="translate(0 0)" style="fill: #dce0ed"/>
    <path d="M591.57,202l-7.74-3.64-4-.24-.3,33.57,12.34-2.26,5.22-3.23,2.75-13.91s-.88-5.83-1.37-6.34S591.57,202,591.57,202Z" transform="translate(0 0)" style="opacity: 0.10000000149011612;isolation: isolate"/>
    <path d="M593,229.29l-.15.17,8.67-1.5.11-.17c4.69-7.25,5.19-13.21,3.76-17.92a27.27,27.27,0,0,0-2.86-.17c-3.18,1.26.06,5.81.06,5.81l-4.6.76C598.2,222.84,593.89,228.27,593,229.29Z" transform="translate(0 0)" style="opacity: 0.10000000149011612;isolation: isolate"/>
    <path d="M580.84,198.15c1.45.59,2.79,1.2,4,1.82,5.54,2.8,8.93,5.89,10.89,9l8.85-1.27c-3.68-8-12.75-11.83-12.75-11.83l-1.85.39Z" transform="translate(0 0)" style="opacity: 0.10000000149011612;isolation: isolate"/>
    <path d="M590.86,195.85s24.07,10.09,9.7,32.09l-8.68,1.5s17.49-19.28-12-31.31Z" transform="translate(0 0)" style="fill: #dce0ed"/>
    <polygon points="532.84 205.55 523.87 205.05 524.68 241.13 539.19 238.75 545.39 235.87 548.35 228.78 550.48 221.68 545.79 215.11 540.37 211.35 532.84 205.55" style="fill: #dce0ed"/>
    <polygon points="532.84 205.55 523.87 205.05 524.68 241.13 539.19 238.75 545.39 235.87 548.35 228.78 550.48 221.68 545.79 215.11 540.37 211.35 532.84 205.55" style="opacity: 0.10000000149011612;isolation: isolate"/>
    <ellipse cx="533.46" cy="224.17" rx="7.31" ry="4.32" transform="translate(299.28 753.31) rotate(-88.92)" style="fill: #dce0ed"/>
    <path d="M574.49,234.88a2.35,2.35,0,0,1,1.22,3.09,2,2,0,0,1-.1.21c-1,1.81-2.24,4.16-2.14,4.79.17,1.06-2.18.14-2.49-.11s-4.61-.09-4.8-3a5.06,5.06,0,0,1,2.39-4.44l-.88-6.44,5.93-.39-.17,5.86Z" transform="translate(0 0)" style="fill: #636780"/>
    <path d="M574.49,234.88a2.35,2.35,0,0,1,1.22,3.09,2,2,0,0,1-.1.21c-1,1.81-2.24,4.16-2.14,4.79.17,1.06-2.18.14-2.49-.11s-4.61-.09-4.8-3a5.06,5.06,0,0,1,2.39-4.44l-.88-6.44,5.93-.39-.17,5.86Z" transform="translate(0 0)" style="opacity: 0.10000000149011612;isolation: isolate"/>
    <path d="M572.88,234.77s-2.12,6.82-1.26,7.08S572.88,234.77,572.88,234.77Z" transform="translate(0 0)" style="opacity: 0.10000000149011612;isolation: isolate"/>
    <path d="M570.67,233.07s-2.13,6.81-1.26,7.08S570.67,233.07,570.67,233.07Z" transform="translate(0 0)" style="opacity: 0.10000000149011612;isolation: isolate"/>
    <path d="M547.17,212l2.94,20.67s4.12-.49,6.4-.93a4.51,4.51,0,0,0,1.44-.42c.11-.11.36-.1.68,0h0c1.1.25,3,1.2,3.45.44a.57.57,0,0,1,.11-.16h0c.4-.41,1.15-.09,1.88,0a1.56,1.56,0,0,0,1.16-.13c.62-.4,1.85.28,2.87.52.64.15,1.19.13,1.45-.44a1.38,1.38,0,0,1,1-.69h0c1-.22,2.29,0,3.07-.18.3-.05.52-.16.59-.37.16-.45,1-.65,1.94-.8,1.12-.2,2.31-.33,2.41-.78,0-.15.14-.21.31-.21a9.47,9.47,0,0,1,1.81.48h0c.5.13.91.15,1-.21s.71-.34,1.36-.16,1.1.35,1.55.46.69.12.74-.07c.18-.66,2.31.88,2.83-.44s7.51-10-1.08-21.63c0,0-2.39.12-4.21.42a6.42,6.42,0,0,0-1.77.46h0a10.52,10.52,0,0,1-3.21.31,4,4,0,0,0-1.79.39,1.12,1.12,0,0,0-.51.52c-.29.63-.93.74-1.63.69-.94-.07-2-.45-2.37-.27h0c-.71.28-3.31-.06-3.76.37h0c-.19.27-1.21,0-2.25-.2h0a2.56,2.56,0,0,0-2.07.29,2.27,2.27,0,0,1-1.63.44,9.93,9.93,0,0,0-2.11,0,.8.8,0,0,0-.43.26c-.43.51-1.44.42-2.34.45a2.38,2.38,0,0,0-1.33.31,1.18,1.18,0,0,1-.48.19,14.13,14.13,0,0,1-4-.28Z" transform="translate(0 0)" style="fill: #636780"/>
    <path d="M583.12,228.59c.52.14,1.1.35,1.55.46,7-10.34,1.41-18.39-1.72-21.72a6.42,6.42,0,0,0-1.77.46C587.81,215.77,584.48,225.45,583.12,228.59Z" transform="translate(0 0)" style="opacity: 0.10000000149011612;isolation: isolate"/>
    <path d="M578.91,228.48a9.47,9.47,0,0,1,1.81.48h0c6-10.1.17-17.85-2.77-20.85a4,4,0,0,0-1.79.39C582.49,215.69,580.4,224.44,578.91,228.48Z" transform="translate(0 0)" style="opacity: 0.10000000149011612;isolation: isolate"/>
    <path d="M573.66,230.64c.3,0,.52-.16.59-.37.16-.45,1-.65,1.94-.8,5.24-9.16.84-16.35-2.17-19.76-.94-.07-2-.45-2.37-.27h0C578.61,217.61,575,227.68,573.66,230.64Z" transform="translate(0 0)" style="opacity: 0.10000000149011612;isolation: isolate"/>
    <path d="M568.12,232c.64.15,1.19.13,1.45-.44a1.38,1.38,0,0,1,1-.69h0c6.1-10.19.22-18-2.73-21h0c-.19.27-1.21,0-2.25-.2C573.81,218.3,569.28,229.48,568.12,232Z" transform="translate(0 0)" style="opacity: 0.10000000149011612;isolation: isolate"/>
    <path d="M562.21,231.53c.4-.41,1.15-.09,1.88,0,6.35-10.11.84-17.94-2.22-21.16a9.93,9.93,0,0,0-2.11,0C566.8,218.32,563.65,228.12,562.21,231.53Z" transform="translate(0 0)" style="opacity: 0.10000000149011612;isolation: isolate"/>
    <path d="M556.51,231.71a4.51,4.51,0,0,0,1.44-.42c.11-.11.36-.1.68,0h0c5.63-9.23,1.41-16.53-1.65-20.1a2.38,2.38,0,0,0-1.33.31,1.18,1.18,0,0,1-.48.19C561,219.47,557.82,228.69,556.51,231.71Z" transform="translate(0 0)" style="opacity: 0.10000000149011612;isolation: isolate"/>
    <ellipse cx="395.15" cy="243.83" rx="39.88" ry="27.09" transform="translate(143.91 634.32) rotate(-88.92)" style="fill: #636780"/>
    <ellipse cx="396.06" cy="244.42" rx="32.32" ry="19.69" transform="translate(144.21 635.8) rotate(-88.92)" style="opacity: 0.10000000149011612;isolation: isolate"/>
    <ellipse cx="396.08" cy="243.42" rx="32.32" ry="19.69" transform="translate(145.23 634.84) rotate(-88.92)" style="fill: #f0f0f4"/>
    <ellipse cx="392.91" cy="221.68" rx="3.99" ry="2.33" transform="translate(163.86 610.35) rotate(-88.92)" style="fill: #636780"/>
    <ellipse cx="382.95" cy="256.4" rx="3.99" ry="2.33" transform="translate(119.38 634.44) rotate(-88.92)" style="fill: #636780"/>
    <ellipse cx="408.34" cy="240.26" rx="3.99" ry="2.33" transform="translate(160.43 644) rotate(-88.92)" style="fill: #636780"/>
    <ellipse cx="401.1" cy="263.38" rx="3.99" ry="2.33" transform="translate(130.2 659.45) rotate(-88.92)" style="fill: #636780"/>
    <path d="M198.35,166.33s-20.42,51.44-19.48,54.73c0,0-8.32,4.82-10.29,3.54s.21-24.18.21-24.18l4.12-20.11,4.46-11.89Z" transform="translate(0 0)" style="fill: #65617d"/>
    <path d="M198.35,166.33s-20.42,51.44-19.48,54.73c0,0-8.32,4.82-10.29,3.54s.21-24.18.21-24.18l4.12-20.11,4.46-11.89Z" transform="translate(0 0)" style="opacity: 0.15000000596046448;isolation: isolate"/>
    <ellipse cx="380.02" cy="234.73" rx="3.99" ry="2.33" transform="translate(138.18 610.26) rotate(-88.92)" style="fill: #636780"/>
    <ellipse cx="392.48" cy="244.61" rx="9.47" ry="6.81" transform="translate(140.52 632.41) rotate(-88.92)" style="fill: #636780"/>
    <path d="M175.36,235.2c-.57,30,8.89,57.51,36.61,55,34.9-.09,38.09-23.61,38.65-53.62s-15.86-52.65-36.64-53S175.93,205.19,175.36,235.2Z" transform="translate(0 0)" style="fill: #636780"/>
    <path d="M175.14,235.25c.44-23.23,10.89-41.67,25.23-48.63,18.18,3.81,31.81,25.06,31.29,52.44-.46,24.59-2.69,44.82-22.69,51.37C183.4,290.87,174.6,264.23,175.14,235.25Z" transform="translate(0 0)" style="opacity: 0.10000000149011612;isolation: isolate"/>
    <path d="M160.9,222.21s4.9,4.33,7.7,1.39c0,0,7.75-53.7,16.22-53.79l29.17.3s3.46,1.56,4.83,8.07l17.84,54L340,235.65l8.2-16.38-85.49-1.37h0c-.43-1.66-13.74-52.93-23.22-59.46h0a4.17,4.17,0,0,0-1-.53s-35.55-5.41-47.32-2.39c0,0-12.27,2.51-15.33,6.19h0c-.41.41-5.13,5.54-6.85,20.54Z" transform="translate(0 0)" style="opacity: 0.10000000149011612;isolation: isolate"/>
    <path d="M160.88,223.21s4.9,4.33,7.7,1.39c0,0,7.75-53.7,16.22-53.79l29.17.3s3.46,1.56,4.83,8.07l17.84,54L340,236.65l8.2-16.39-85.48-1.36h0c-.44-1.66-13.75-52.93-23.23-59.46h0a4.17,4.17,0,0,0-1-.53s-35.55-5.41-47.32-2.39c0,0-12.26,2.51-15.33,6.19h0c-.41.41-5.13,5.53-6.85,20.53Z" transform="translate(0 0)" style="fill: #65617d"/>
    <path d="M160.88,223.21s4.9,4.33,7.7,1.39c0,0,7.75-53.7,16.22-53.79l29.17.3s3.46,1.56,4.83,8.07l17.84,54L340,236.65l8.2-16.39-85.48-1.36h0c-.44-1.66-13.75-52.93-23.23-59.46h0a4.17,4.17,0,0,0-1-.53s-35.55-5.41-47.32-2.39c0,0-12.26,2.51-15.33,6.19h0c-.41.41-5.13,5.53-6.85,20.53Z" transform="translate(0 0)" style="opacity: 0.10000000149011612;isolation: isolate"/>
    <path d="M225.29,165.59c2.4,4.78,22.73,63.5,22.73,63.5l14.66-10.19h0c-.44-1.66-13.77-53-23.25-59.47C233.16,160.34,223.66,162.34,225.29,165.59Z" transform="translate(0 0)" style="fill: #65617d"/>
    <path d="M253.7,139.45l11,38.6,61.09-.59-.6,5.72s-48,6.08-68.24-3.78l-10.3-35.26-96.38-1.32,18.45-4Z" transform="translate(0 0)" style="fill: #65617d"/>
    <path d="M253.7,139.45l11,38.6,61.09-.59-.6,5.72s-48,6.08-68.24-3.78l-10.3-35.26-96.38-1.32,18.45-4Z" transform="translate(0 0)" style="fill: #fff;opacity: 0.10000000149011612;isolation: isolate"/>
    <path d="M538.82,205.33s32.42,17.07,7.87,32.06l-6.5,1.38s24.08-16.67-15.32-33.7Z" transform="translate(0 0)" style="opacity: 0.10000000149011612;isolation: isolate"/>
    <path d="M537.83,205.31s32.42,17.07,7.87,32.06l-6.51,1.4s24.08-16.67-15.32-33.7Z" transform="translate(0 0)" style="fill: #dce0ed"/>
    <ellipse cx="198.44" cy="239.86" rx="31.16" ry="18.2" transform="matrix(0.02, -1, 1, 0.02, -45.12, 433.75)" style="fill: #636780"/>
    <ellipse cx="199.05" cy="240.55" rx="25.25" ry="13.23" transform="translate(-45.2 435.03) rotate(-88.92)" style="opacity: 0.10000000149011612;isolation: isolate"/>
    <ellipse cx="199.07" cy="239.55" rx="25.25" ry="13.23" transform="translate(-44.18 434.07) rotate(-88.92)" style="fill: #f0f0f4"/>
    <ellipse cx="197" cy="222.57" rx="3.12" ry="1.56" transform="translate(-29.24 415.34) rotate(-88.92)" style="fill: #636780"/>
    <ellipse cx="190.22" cy="249.71" rx="3.12" ry="1.56" transform="translate(-63.02 435.19) rotate(-88.92)" style="fill: #636780"/>
    <ellipse cx="207.33" cy="237.04" rx="3.12" ry="1.56" transform="translate(-33.58 439.87) rotate(-88.92)" style="fill: #636780"/>
    <ellipse cx="202.4" cy="255.13" rx="3.12" ry="1.56" transform="translate(-56.5 452.69) rotate(-88.92)" style="fill: #636780"/>
    <ellipse cx="188.31" cy="232.79" rx="3.12" ry="1.56" transform="translate(-47.98 416.68) rotate(-88.92)" style="fill: #636780"/>
    <ellipse cx="196.66" cy="240.47" rx="7.4" ry="4.58" transform="translate(-47.48 432.57) rotate(-88.92)" style="fill: #636780"/>
    <path d="M465.24,106.3s-55.36,1-127.51,19.28Z" transform="translate(0 0)" style="opacity: 0.10000000149011612;isolation: isolate"/>
    <path d="M203.1,4.46s3,.54,1.36,4.48a27.43,27.43,0,0,0-1.92,6s-3,1.51-2.81-3.66S203.1,4.46,203.1,4.46Z" transform="translate(0 0)" style="fill: #dce0ed"/>
    <path d="M313.12,317.67a1.5,1.5,0,1,0-1.5-1.5A1.5,1.5,0,0,0,313.12,317.67Z" transform="translate(0 0)" style="fill: #65617d"/>
  </g>
  <ellipse cx="663.91" cy="451.63" rx="18.68" ry="3.16" style="fill: #1590a5;opacity: 0.10000000149011612;isolation: isolate"/>
  <path d="M651.36,437s10.66-.33,13.87-2.61,16.39-5,17.18-1.35,16,18.23,4,18.33-27.95-1.87-31.16-3.83S651.36,437,651.36,437Z" transform="translate(0 0)" style="fill: #a8a8a8"/>
  <path d="M686.61,450.05c-12,.1-28-1.87-31.15-3.82-2.44-1.49-3.41-6.82-3.74-9.28h-.36s.68,8.59,3.88,10.54,19.13,3.93,31.16,3.83c3.47,0,4.67-1.26,4.6-3.09C690.52,449.34,689.19,450,686.61,450.05Z" transform="translate(0 0)" style="opacity: 0.20000000298023224;isolation: isolate"/>
  <ellipse cx="772.24" cy="414.84" rx="14.37" ry="2.43" style="fill: #1590a5;opacity: 0.10000000149011612;isolation: isolate"/>
  <path d="M762.58,403.55s8.2-.25,10.67-2,12.61-3.86,13.23-1,12.32,14,3.06,14.11-21.51-1.44-24-2.94S762.58,403.55,762.58,403.55Z" transform="translate(0 0)" style="fill: #a8a8a8"/>
  <path d="M789.7,413.63c-9.25.07-21.5-1.44-24-2.94-1.87-1.15-2.62-5.25-2.87-7.15h-.28s.52,6.62,3,8.12,14.71,3,24,2.94c2.67,0,3.59-1,3.54-2.38C792.71,413.08,791.69,413.61,789.7,413.63Z" transform="translate(0 0)" style="opacity: 0.20000000298023224;isolation: isolate"/>
  <ellipse cx="707.03" cy="568.44" rx="34.31" ry="5.8" style="fill: #1590a5;opacity: 0.10000000149011612;isolation: isolate"/>
  <path d="M684,541.49s19.57-.61,25.46-4.81,30.11-9.21,31.57-2.47,29.41,33.5,7.32,33.67-51.34-3.44-57.23-7S684,541.49,684,541.49Z" transform="translate(0 0)" style="fill: #a8a8a8"/>
  <path d="M748.73,565.54c-22.09.18-51.34-3.44-57.22-7-4.49-2.73-6.27-12.53-6.87-17H684s1.24,15.78,7.12,19.37,35.13,7.2,57.23,7c6.38,0,8.58-2.32,8.46-5.68C755.91,564.23,753.48,565.5,748.73,565.54Z" transform="translate(0 0)" style="opacity: 0.20000000298023224;isolation: isolate"/>
  <path d="M1069.29,364.27A89.33,89.33,0,0,1,891,371.94c-.13-1.45-.23-2.9-.27-4.38v-.07c-.05-1.07-.07-2.14-.07-3.22a89.33,89.33,0,0,1,178.13-9.79A86.51,86.51,0,0,1,1069.29,364.27Z" transform="translate(0 0)" style="fill: #65617d"/>
  <path d="M1069.29,364.27A89.33,89.33,0,0,1,891,371.94c-.13-1.45-.23-2.9-.27-4.38v-.07c-.05-1.07-.07-2.14-.07-3.22a89.33,89.33,0,0,1,178.13-9.79A86.51,86.51,0,0,1,1069.29,364.27Z" transform="translate(0 0)" style="opacity: 0.20000000298023224;isolation: isolate"/>
  <circle cx="979.95" cy="364.27" r="48.73" transform="translate(268.4 1130.23) rotate(-67.5)" style="fill: #dce0ed"/>
  <circle cx="979.95" cy="364.27" r="29.24" style="fill: #65617d"/>
  <path d="M592.38,364.27a89.33,89.33,0,0,1-178.33,7.67c-.13-1.45-.23-2.9-.27-4.38v-.07c0-1.07-.07-2.14-.07-3.22a89.34,89.34,0,0,1,178.67,0Z" transform="translate(0 0)" style="fill: #65617d"/>
  <path d="M592.38,364.27a89.33,89.33,0,0,1-178.33,7.67c-.13-1.45-.23-2.9-.27-4.38v-.07c0-1.07-.07-2.14-.07-3.22a89.34,89.34,0,0,1,178.67,0Z" transform="translate(0 0)" style="opacity: 0.20000000298023224;isolation: isolate"/>
  <circle cx="503.04" cy="364.27" r="48.73" style="fill: #dce0ed"/>
  <circle cx="503.04" cy="364.27" r="29.24" transform="matrix(0.16, -0.99, 0.99, 0.16, 62.9, 802.47)" style="fill: #65617d"/>
  <path d="M1097.15,347.53l-29.8-1.29-27.22-50.54-95.9-7.78-46.65,60.91,2.59,16.85-6.48,15.55-304.55,2.59V376h-2.59L584,364.38h23.33l-16.85-18.14L530.87,295.7s-102.38,2.59-103.68,0S433,266.54,433,266.54l44.06-13,150.33-11.67c33-52.48,62.85-77.11,62.85-77.11h386.2l18.14,93.31v.22Z" transform="translate(0 0)" style="fill: #444053"/>
  <path d="M882,354s38.88-72.57,68.69-72.57h72.57s18.15,0,25.92,14.26L1079,354h-23.33s-19.44-54.43-41.47-55.72-59.61,0-59.61,0-13,0-20.74,15.55-34.05,49.43-34.05,49.43S871.66,372.16,882,354Z" transform="translate(0 0)" style="fill: #33323d"/>
  <polygon points="1114 342.35 1065.25 342.35 1064.75 381.23 1114 369.57 1114 342.35" style="fill: #33323d"/>
  <path d="M409,319s2.59-19.44,20.74-27.21L549,285.33s19.44,1.29,29.81,25.92l33.66,50.52v7.77H574.88s-18.14-68.68-70-66.09H442.69s-14.25,0-19.43,23.33Z" transform="translate(0 0)" style="fill: #33323d"/>
  <path d="M688.93,172.58h397.85a14.27,14.27,0,0,0-14.25-14.26H703.18A14.27,14.27,0,0,0,688.93,172.58Z" transform="translate(0 0)" style="fill: #33323d"/>
  <path d="M774.19,249H664.09a7.44,7.44,0,0,1-7.44-7.44,7.23,7.23,0,0,1,.64-3l17.42-39.19A34.2,34.2,0,0,1,706,179.06h66.89a9.38,9.38,0,0,1,9.37,9.37V241a8,8,0,0,1-8,8Z" transform="translate(0 0)" style="fill: #1590a5;opacity: 0.30000001192092896;isolation: isolate"/>
  <rect x="810.75" y="179.06" width="107.56" height="69.98" rx="5.54" style="fill: #1590a5;opacity: 0.30000001192092896;isolation: isolate"/>
  <polygon points="1094.56 258.11 1094.56 258.33 927.38 260.7 923.03 164.81 1076.42 164.81 1094.56 258.11" style="fill: #33323d"/>
  <rect x="941.64" y="179.06" width="123.12" height="69.98" rx="5.54" style="fill: #1590a5;opacity: 0.30000001192092896;isolation: isolate"/>
  <rect x="748.54" y="273.66" width="41.47" height="7.78" rx="1.76" style="fill: #33323d"/>
  <rect x="867.77" y="273.66" width="41.47" height="7.78" rx="1.76" style="fill: #33323d"/>
  <path d="M370.61,418.11c-6.19,6.74-10.75,9.39-10.54,2.28.65-21.5-37.07-118.72-37.07-118.72l11.17-.84C358.5,342.88,367.57,386.09,370.61,418.11Z" transform="translate(0 0)" style="fill: none"/>
  <path d="M423.92,465a53.75,53.75,0,0,1-107.31,4.62c-.08-.88-.13-1.75-.16-2.64h0v-1.94a53.75,53.75,0,0,1,107.18-5.89A52,52,0,0,1,423.92,465Z" transform="translate(0 0)" style="fill: #65617d"/>
  <circle cx="370.16" cy="465.02" r="29.32" style="fill: #dce0ed"/>
  <circle cx="370.16" cy="465.02" r="17.59" style="fill: #65617d"/>
  <path d="M229,362.94,99.55,365.55V346.44c1.16-15.36,16.91-20.75,31.29-22.44a90,90,0,0,1,33.44,2.51c27.46,7.27,45,8.68,53.58,8.82a8.22,8.22,0,0,1,7.95,6.68c.41,2.19.81,4.56,1.19,6.91.29,1.84.56,3.65.81,5.34C228.52,359.15,229,362.94,229,362.94Z" transform="translate(0 0)" style="fill: #65617d"/>
  <path d="M332.26,468.5H63.36a10.58,10.58,0,0,1-9.8-6.34c-2-4.84.81-7.93,3.83-9.74a30.46,30.46,0,0,0,13.24-16.2c2.87-8.44,5.67-21.73,6.77-42.43,1.13-21.42,8.89-32,17.27-37.14h0c10.83-6.62,22.69-4.13,22.69-4.13l109,.87a21,21,0,0,1,5.32,3.47c9.72,9.05-4.45,20.85-4.45,20.85-30.41,32.14-7.39,64.72-7.39,64.72h55.79a51.29,51.29,0,0,0,29.22-8.94c7.54-5.21,10.46-10.25,11.59-13.3.86-2.33,1.73-4.66,2.77-6.91,14.64-31.74-3-83.37-10.63-102.68-1.89-4.8-3.16-7.6-3.16-7.6L323,301.67l11.06-.84h.11c24.38,42.05,33.45,85.26,36.49,117.28q.43,4.53.72,8.75a39.11,39.11,0,0,1-36.5,41.56C334,468.47,333.13,468.5,332.26,468.5Z" transform="translate(0 0)" style="fill: #1590a5"/>
  <path d="M227.81,354.26H99.55v-5.34H227C227.29,350.77,227.56,352.57,227.81,354.26Z" transform="translate(0 0)" style="opacity: 0.10000000149011612;isolation: isolate"/>
  <path d="M231.71,356.86h-136a2.49,2.49,0,0,1-1-.21c10.83-6.62,22.69-4.13,22.69-4.13l109,.87A20.79,20.79,0,0,1,231.71,356.86Z" transform="translate(0 0)" style="opacity: 0.10000000149011612;isolation: isolate"/>
  <path d="M48.12,350.23H232.84a2.67,2.67,0,0,1,2.67,2.67h0a2.67,2.67,0,0,1-2.67,2.67H48.12a2.67,2.67,0,0,1-2.67-2.67h0A2.67,2.67,0,0,1,48.12,350.23Z" transform="translate(0 0)" style="fill: #dce0ed"/>
  <path d="M370.61,418.11c-6.19,6.74-10.75,9.39-10.54,2.28.65-21.5-37.07-118.72-37.07-118.72l11.17-.84C358.5,342.88,367.57,386.09,370.61,418.11Z" transform="translate(0 0)" style="opacity: 0.10000000149011612;isolation: isolate"/>
  <path d="M423.59,459.13c-6.41,1.54-14.35,3.11-24.14,4.54q-5.44.79-11.7,1.54c-10,1.18-21.54,2.22-34.88,3q-5.67.35-11.78.62-11.43.53-24.48.8l-.16-2.64h0c12.15-4.91,31.27-18,34.35-52.09a53.78,53.78,0,0,1,72.79,44.26Z" transform="translate(0 0)" style="opacity: 0.10000000149011612;isolation: isolate"/>
  <path d="M306.32,468.5s61.68-6.73,40.46-100.73c0,0,30.49,28,49.45,43.49s52.77,37,52.77,37S428.81,467.09,306.32,468.5Z" transform="translate(0 0)" style="fill: #1590a5"/>
  <path d="M306.32,468.5s61.68-6.73,40.46-100.73c0,0,30.49,28,49.45,43.49s52.77,37,52.77,37S428.81,467.09,306.32,468.5Z" transform="translate(0 0)" style="fill: #fff;opacity: 0.10000000149011612;isolation: isolate"/>
  <circle cx="141.47" cy="465.02" r="53.75" style="fill: #65617d"/>
  <circle cx="141.47" cy="465.02" r="29.32" style="fill: #dce0ed"/>
  <circle cx="141.47" cy="465.02" r="17.59" style="fill: #65617d"/>
  <path d="M201.74,448.88c0-34.71-27.57-62.86-61.57-62.86s-61.58,28.15-61.58,62.86c0,1.47.06,2.92.15,4.36H201.59C201.69,451.77,201.74,450.35,201.74,448.88Z" transform="translate(0 0)" style="opacity: 0.10000000149011612;isolation: isolate"/>
  <path d="M199.46,447.77c0-33.43-26.55-60.53-59.29-60.53s-59.3,27.1-59.3,60.53A38.84,38.84,0,0,0,81,452H199.31C199.41,450.61,199.46,449.21,199.46,447.77Z" transform="translate(0 0)" style="fill: #1590a5"/>
  <path d="M199.46,447.77c0,1,0,1.93-.07,2.89a8,8,0,0,1-.07,1.3H81c0-.43-.06-.86-.08-1.3,0-1-.07-1.92-.07-2.89,0-33.43,26.55-60.53,59.3-60.53S199.46,414.37,199.46,447.77Z" transform="translate(0 0)" style="fill: #fff;opacity: 0.10000000149011612;isolation: isolate"/>
  <path d="M199.39,450.69a8,8,0,0,1-.07,1.3H81c0-.43-.06-.86-.08-1.3Z" transform="translate(0 0)" style="opacity: 0.10000000149011612;isolation: isolate"/>
  <path d="M61.88,453.3h145.4a7,7,0,0,1,6.95,6.95h0a7,7,0,0,1-6.95,6.95H61.88a7,7,0,0,1-7-6.95h0A7,7,0,0,1,61.88,453.3Z" transform="translate(0 0)" style="opacity: 0.10000000149011612;isolation: isolate"/>
  <path d="M61.88,452h145.4a7,7,0,0,1,6.95,6.95h0a7,7,0,0,1-6.95,6.95H61.88a7,7,0,0,1-7-6.95h0A7,7,0,0,1,61.88,452Z" transform="translate(0 0)" style="fill: #dce0ed"/>
  <ellipse cx="351.91" cy="343.44" rx="7.8" ry="19.65" transform="translate(-110.24 175.49) rotate(-24.33)" style="opacity: 0.10000000149011612;isolation: isolate"/>
  <ellipse cx="352.55" cy="342.79" rx="7.8" ry="19.65" transform="translate(-109.91 175.69) rotate(-24.33)" style="fill: #dce0ed"/>
  <path d="M334,300.83V311H314.14a35.35,35.35,0,0,1-5.53-.44c-1.89-4.8-3.16-7.6-3.16-7.6L323,301.67Z" transform="translate(0 0)" style="opacity: 0.10000000149011612;isolation: isolate"/>
  <path d="M334,309.77H314.14c-17.46,0-31.6-13.06-31.6-29.17v-2.7c0-16.11,14.14-29.17,31.6-29.17l19.87,1.8Z" transform="translate(0 0)" style="fill: #1590a5"/>
  <path d="M301.27,266s11.89,6.35,5.05,17.1c0,0-8.39,13.77-21.59,12.46L279.93,266S295.73,264.5,301.27,266Z" transform="translate(0 0)" style="fill: #1590a5"/>
  <path d="M296.7,265.39a12.62,12.62,0,0,1,9.66,5.1c2.12,2.93,3.38,7.21,0,12.58,0,0-8.39,13.77-21.59,12.46L280,266A148.31,148.31,0,0,1,296.7,265.39Z" transform="translate(0 0)" style="opacity: 0.10000000149011612;isolation: isolate"/>
  <path d="M333.36,250.51h0a16,16,0,0,1,16,16h0v27.31a16,16,0,0,1-16,16h0V250.51Z" transform="translate(0 0)" style="opacity: 0.10000000149011612;isolation: isolate"/>
  <path d="M334,250.51h0a16,16,0,0,1,16,16h0v27.31a16,16,0,0,1-16,16h0V250.51Z" transform="translate(0 0)" style="fill: #dce0ed"/>
  <ellipse cx="278.55" cy="281.34" rx="13.2" ry="16.06" style="fill: #1590a5"/>
</svg>
