<svg xmlns="http://www.w3.org/2000/svg" xmlns:xlink="http://www.w3.org/1999/xlink" width="4084.68" height="1125.76" viewBox="0 0 4084.68 1125.76"><defs><linearGradient id="a" x1="1795.36" y1="282.81" x2="1843.65" y2="282.81" gradientTransform="matrix(1, 0, 0, -1, 0, 1130)" gradientUnits="userSpaceOnUse"><stop offset="0" stop-color="#fff"/><stop offset="1" stop-color="#81ecff"/></linearGradient><linearGradient id="b" x1="2502.63" y1="852.5" x2="2550.93" y2="852.5" xlink:href="#a"/><linearGradient id="c" x1="930.57" y1="1007.51" x2="1032.57" y2="1007.51" xlink:href="#a"/><linearGradient id="d" x1="3808.62" y1="790.92" x2="3910.62" y2="790.92" xlink:href="#a"/><linearGradient id="e" x1="411" y1="416.09" x2="462" y2="416.09" xlink:href="#a"/><linearGradient id="f" x1="3201.66" y1="160.83" x2="3252.66" y2="160.83" xlink:href="#a"/></defs><title>carBackground</title><g opacity="0.23"><path d="M636.45,193.26v2.81a2.13,2.13,0,0,0,1.33,2v7.14a1.92,1.92,0,0,0,1.91,1.91h7.45a10.78,10.78,0,0,0,21.54,0H712.2a10.78,10.78,0,0,0,21.54,0h5.94a1.92,1.92,0,0,0,1.91-1.91V194.46a1.9,1.9,0,0,0-.56-1.35,1.93,1.93,0,0,0-1.24-.56,2.12,2.12,0,0,0,1-1.83v-2.81a2.16,2.16,0,0,0-2.13-2.16v-1a2,2,0,0,0-.45-1.24l-8.07-15.3a6.76,6.76,0,0,0-4.44-3.06c-49.8-14.37-65,9.66-66.62,11.89-.28.37-6.6,1.92-12.67,4.44a14.06,14.06,0,0,0-8.24,9.67,2.16,2.16,0,0,0-1.74,2.12Z" fill="#7bcce6"/><path d="M225.15,525.38v2.82a2.17,2.17,0,0,1-1.33,2v7.13a1.92,1.92,0,0,1-1.91,1.92h-7.45a10.78,10.78,0,0,1-21.54,0H149.4a10.78,10.78,0,0,1-21.54,0h-5.94a1.92,1.92,0,0,1-1.92-1.92V526.58a1.91,1.91,0,0,1,.57-1.35,1.86,1.86,0,0,1,1.23-.55,2.16,2.16,0,0,1-1-1.83V520a2.15,2.15,0,0,1,2.13-2.15v-1a1.9,1.9,0,0,1,.45-1.23l8.07-15.31a6.76,6.76,0,0,1,4.44-3.06c49.79-14.37,65,9.66,66.62,11.89.27.37,6.6,1.92,12.67,4.45a14.06,14.06,0,0,1,8.24,9.67,2.13,2.13,0,0,1,1.73,2.12Z" fill="#7bcce6"/><path d="M873.82,784.06v6.39a1.75,1.75,0,0,1-1.75,1.75h-11a11.46,11.46,0,0,1-22.24,0H776.05a11.46,11.46,0,0,1-22.24,0H743.35a1.75,1.75,0,0,1-1.76-1.74h0v-6.39a1.75,1.75,0,0,1,1.75-1.75h.09l.38-6.11a2.72,2.72,0,0,1-2.22-2.68v-1.9a2.73,2.73,0,0,1,2.67-2.73l.64-10.44a4.44,4.44,0,0,1,4-4.15l9.91-1s17.93-10,39.24-9S836.23,757,836.23,757s13.64.37,24.09,4.74a18.7,18.7,0,0,1,8.61,7.31,2.86,2.86,0,0,1,1.08-.22,2.73,2.73,0,0,1,2.73,2.73v1.9a2.73,2.73,0,0,1-1.2,2.26h0a19.34,19.34,0,0,1,.32,3.48v3h.22a1.74,1.74,0,0,1,1.74,1.76Z" fill="#7bcce6"/><path d="M567.91,539.77v9.3a3.07,3.07,0,0,0,3.05,3h13.57a16.73,16.73,0,0,0,29.91,0h93.71a16.74,16.74,0,0,0,29.92,0h9.07a5.56,5.56,0,0,0,4.24-2L755.7,545a2.53,2.53,0,0,0,.62-1.66V528.52a2.64,2.64,0,0,0-2.64-2.64H752a2.75,2.75,0,0,0,1.61-2.53v-4.47a2.8,2.8,0,0,0-2.79-2.81h-1.08v-5.34a3,3,0,0,0-3-3l-.32,0-15.71,1.88,3.93-23.21-.56-.1-3.94,23.38-24.54,2.94L678.51,511V502.2a4.35,4.35,0,0,0-8.69-.42,2.94,2.94,0,0,0,0,.42v8.19l-14.65-.9v-4.61a2.17,2.17,0,1,0-4.34,0v4.35L637,508.39c6.55-7.84,18.59-18.87,35.64-21.24a1,1,0,0,0,.84-.95v-4.36a1,1,0,0,0-1-1h-.06c-27.21,2.54-43.57,25.17-45.37,27.77L590.41,515a26.86,26.86,0,0,0-9.77,3.73,1.42,1.42,0,0,0-1.07-.49H575a1.43,1.43,0,0,0-1.42,1.43v5.49A27.07,27.07,0,0,0,567.91,539.77Z" fill="#7bcce6"/><path d="M484.66,380.31v9.22a2.48,2.48,0,0,1-2.48,2.5H463.31a12.78,12.78,0,0,1-25.47,0H409.09a12.79,12.79,0,0,1-25.48,0H368.94a2.5,2.5,0,0,1-2.5-2.5v-9.22a2.5,2.5,0,0,1,2.5-2.49h3.14v-9.16h-8.64a2.45,2.45,0,0,1-2.43-2.44v-22.7a2.43,2.43,0,0,1,2.42-2.44h8.86V326a2.48,2.48,0,0,1,2.48-2.5h68.49a2.5,2.5,0,0,1,2.4,1.82L452,347.74h25a2.48,2.48,0,0,1,2.49,2.49h0v10.48H480a3.47,3.47,0,0,1,3.47,3.47h0v2.25a3.47,3.47,0,0,1-3.47,3.47h-.49v7.91h2.73A2.49,2.49,0,0,1,484.66,380.31Z" fill="#7bcce6"/><path d="M595.46,1031.29v9.22A2.47,2.47,0,0,1,593,1043H574.11a12.78,12.78,0,0,1-25.47,0H519.89a12.78,12.78,0,0,1-25.48,0H479.74a2.48,2.48,0,0,1-2.5-2.48h0v-9.22a2.48,2.48,0,0,1,2.49-2.49h3.15v-9.17h-8.64a2.43,2.43,0,0,1-2.43-2.43V994.5a2.43,2.43,0,0,1,2.42-2.44h8.86V977a2.48,2.48,0,0,1,2.48-2.5h68.5a2.51,2.51,0,0,1,2.4,1.81l6.36,22.42h24.92a2.48,2.48,0,0,1,2.49,2.49h0v10.47h.49a3.48,3.48,0,0,1,3.48,3.48v2.24a3.48,3.48,0,0,1-3.48,3.48h-.49v7.91H593A2.48,2.48,0,0,1,595.46,1031.29Z" fill="#7bcce6"/><path d="M1034.14,1021.73v2.82a2.13,2.13,0,0,1-1.33,2v7.14a1.92,1.92,0,0,1-1.91,1.92h-7.45a10.78,10.78,0,0,1-21.54,0H958.39a10.78,10.78,0,0,1-21.54,0h-5.94a1.92,1.92,0,0,1-1.92-1.92h0v-10.75a1.91,1.91,0,0,1,.57-1.35,1.86,1.86,0,0,1,1.23-.55,2.16,2.16,0,0,1-1-1.83v-2.82a2.15,2.15,0,0,1,2.13-2.15v-1a2,2,0,0,1,.45-1.24l8.07-15.3a6.76,6.76,0,0,1,4.44-3.06c49.79-14.37,65,9.66,66.62,11.89.27.37,6.6,1.92,12.67,4.45a14.07,14.07,0,0,1,8.24,9.66,2.16,2.16,0,0,1,1.74,2.12Z" fill="#7bcce6"/><path d="M1382.56,228.88v6.39a1.75,1.75,0,0,1-1.75,1.75h-11a11.46,11.46,0,0,1-22.24,0h-62.79a11.46,11.46,0,0,1-22.24,0h-10.46a1.75,1.75,0,0,1-1.75-1.75v-6.39a1.75,1.75,0,0,1,1.75-1.75h.09l.37-6.11a2.72,2.72,0,0,1-2.21-2.68v-1.9a2.73,2.73,0,0,1,2.66-2.73l.64-10.44a4.44,4.44,0,0,1,4-4.15l9.91-1s17.93-10,39.24-9S1345,201.88,1345,201.88s13.64.36,24.1,4.74a18.63,18.63,0,0,1,8.6,7.31,2.86,2.86,0,0,1,1.08-.22,2.73,2.73,0,0,1,2.73,2.73v1.9a2.73,2.73,0,0,1-1.2,2.26h0a19.34,19.34,0,0,1,.32,3.48v3h.22a1.75,1.75,0,0,1,1.71,1.79Z" fill="#7bcce6"/><path d="M1034.14,338.47v6.39a1.75,1.75,0,0,1-1.74,1.76h-11a11.47,11.47,0,0,1-22.24,0H936.37a11.47,11.47,0,0,1-22.24,0H903.67a1.76,1.76,0,0,1-1.76-1.76h0v-6.39a1.76,1.76,0,0,1,1.76-1.75h.08l.37-6.1a2.73,2.73,0,0,1-2.21-2.68V326a2.73,2.73,0,0,1,2.67-2.72l.64-10.45a4.44,4.44,0,0,1,4-4.15l9.91-1s17.93-10.05,39.23-9,38.19,12.72,38.19,12.72,13.64.37,24.09,4.75a18.61,18.61,0,0,1,8.61,7.31,2.69,2.69,0,0,1,1.08-.23,2.73,2.73,0,0,1,2.73,2.73v1.91a2.71,2.71,0,0,1-1.2,2.25h0a19.23,19.23,0,0,1,.32,3.47v3.05h.22a1.74,1.74,0,0,1,1.74,1.76Z" fill="#7bcce6"/><path d="M1504.85,491.08v9.31a3.07,3.07,0,0,1-3,3.05h-13.57a16.73,16.73,0,0,1-29.91,0H1364.6a16.73,16.73,0,0,1-29.91,0h-9.07a5.56,5.56,0,0,1-4.24-2l-4.33-5.11a2.57,2.57,0,0,1-.61-1.66V479.83a2.65,2.65,0,0,1,2.64-2.63h1.71a2.79,2.79,0,0,1-1.61-2.54v-4.47a2.8,2.8,0,0,1,2.8-2.8h1v-5.34a3.06,3.06,0,0,1,3.06-3.06h.25l15.7,1.88-3.92-23.2.56-.1,3.94,23.37,24.54,2.94,27.11-1.65v-8.73a4.35,4.35,0,0,1,8.69-.42,2.94,2.94,0,0,1,0,.42v8.19l14.65-.89v-4.62a2.17,2.17,0,0,1,4.34,0v4.36l13.78-.85c-6.56-7.83-18.59-18.86-35.64-21.23a1,1,0,0,1-.85-1v-4.35a1,1,0,0,1,1-1h.07c27.21,2.54,43.57,25.17,45.36,27.77l36.66,6.32a27.34,27.34,0,0,1,9.78,3.73,1.41,1.41,0,0,1,1.07-.48h4.62a1.43,1.43,0,0,1,1.42,1.43v5.48A27.11,27.11,0,0,1,1504.85,491.08Z" fill="#7bcce6"/><path d="M1345.93,1033.26v9.31a3.06,3.06,0,0,0,3,3h13.57a16.73,16.73,0,0,0,29.91,0h93.72a16.73,16.73,0,0,0,29.91,0h9.07a5.56,5.56,0,0,0,4.24-2l4.33-5.11a2.52,2.52,0,0,0,.61-1.66V1022a2.63,2.63,0,0,0-2.63-2.63H1530a2.8,2.8,0,0,0,1.62-2.54v-4.47a2.8,2.8,0,0,0-2.8-2.8h-1.07v-5.34a3.06,3.06,0,0,0-3.06-3.06h-.24l-15.71,1.88,3.92-23.2-.55-.1-3.95,23.37-24.53,2.94-27.12-1.65v-8.73a4.34,4.34,0,0,0-8.68,0v8.19l-14.66-.89v-4.62a2.17,2.17,0,1,0-4.34,0v4.38l-13.78-.85c6.56-7.83,18.59-18.86,35.64-21.23a1,1,0,0,0,.85-1v-4.35a1,1,0,0,0-1-1h-.06c-27.21,2.54-43.58,25.17-45.37,27.77l-36.66,6.32a27.34,27.34,0,0,0-9.78,3.73,1.41,1.41,0,0,0-1.07-.48H1353a1.43,1.43,0,0,0-1.43,1.43h0v5.48A27.23,27.23,0,0,0,1345.93,1033.26Z" fill="#7bcce6"/><path d="M1288.35,836.42v9.22a2.48,2.48,0,0,1-2.47,2.49H1267a12.78,12.78,0,0,1-25.47,0h-28.75a12.78,12.78,0,0,1-25.48,0h-14.67a2.48,2.48,0,0,1-2.5-2.48h0v-9.22a2.48,2.48,0,0,1,2.49-2.49h3.15v-9.17h-8.64a2.43,2.43,0,0,1-2.43-2.43h0V799.62a2.43,2.43,0,0,1,2.43-2.43H1176V782.12a2.48,2.48,0,0,1,2.48-2.5H1247a2.51,2.51,0,0,1,2.4,1.81l6.36,22.42h24.92a2.48,2.48,0,0,1,2.49,2.49h0v10.47h.49a3.48,3.48,0,0,1,3.48,3.48v2.24a3.48,3.48,0,0,1-3.48,3.48h-.49v7.91h2.73A2.48,2.48,0,0,1,1288.35,836.42Z" fill="#7bcce6"/><path d="M1951.58,564.25v2.82a2.13,2.13,0,0,1-1.33,2v7.14a1.92,1.92,0,0,1-1.91,1.92h-7.45a10.78,10.78,0,0,1-21.54,0h-43.52a10.78,10.78,0,0,1-21.54,0h-5.94a1.92,1.92,0,0,1-1.92-1.92h0V565.45a1.91,1.91,0,0,1,.57-1.35,1.86,1.86,0,0,1,1.23-.55,2.16,2.16,0,0,1-1-1.83V558.9a2.15,2.15,0,0,1,2.13-2.15v-1a2,2,0,0,1,.45-1.24l8.07-15.3a6.76,6.76,0,0,1,4.44-3.06c49.79-14.37,65,9.66,66.62,11.89.27.37,6.6,1.92,12.67,4.45a14,14,0,0,1,8.24,9.66,2.16,2.16,0,0,1,1.74,2.12Z" fill="#7bcce6"/><path d="M1673.23,713.29v6.4a1.76,1.76,0,0,1-1.76,1.75h-11a11.47,11.47,0,0,1-22.24,0h-62.79a11.47,11.47,0,0,1-22.24,0h-10.46a1.75,1.75,0,0,1-1.75-1.75h0v-6.4a1.75,1.75,0,0,1,1.75-1.75h.09l.37-6.1a2.73,2.73,0,0,1-2.21-2.68v-1.91a2.71,2.71,0,0,1,2.66-2.72l.64-10.45a4.43,4.43,0,0,1,4-4.14l9.91-1s17.93-10,39.24-9,38.18,12.72,38.18,12.72,13.64.37,24.1,4.75a18.63,18.63,0,0,1,8.6,7.31,2.72,2.72,0,0,1,3.82,2.5v1.91a2.68,2.68,0,0,1-1.21,2.25h0a19.34,19.34,0,0,1,.32,3.48v3h.22a1.76,1.76,0,0,1,1.76,1.76Z" fill="#7bcce6"/><path d="M2038.05,739.85v6.39a1.75,1.75,0,0,0,1.75,1.75h11a11.46,11.46,0,0,0,22.24,0h62.78a11.46,11.46,0,0,0,22.24,0h10.47a1.75,1.75,0,0,0,1.75-1.75v-6.39a1.75,1.75,0,0,0-1.75-1.75h-.09l-.37-6.11a2.73,2.73,0,0,0,2.21-2.68v-1.9a2.73,2.73,0,0,0-2.67-2.73l-.63-10.45a4.44,4.44,0,0,0-4-4.14l-9.92-1s-17.93-10.05-39.23-9-38.19,12.72-38.19,12.72-13.64.36-24.09,4.74a18.58,18.58,0,0,0-8.6,7.31,3,3,0,0,0-1.09-.22,2.73,2.73,0,0,0-1.93.79,2.76,2.76,0,0,0-.8,1.94v1.9a2.73,2.73,0,0,0,1.2,2.26h0A19.33,19.33,0,0,0,2040,735v3h-.23a1.75,1.75,0,0,0-1.74,1.76Z" fill="#7bcce6"/><path d="M2283.75,438.92v9.22a2.48,2.48,0,0,1-2.49,2.49H2262.4a12.79,12.79,0,0,1-25.48,0h-28.74a12.79,12.79,0,0,1-25.48,0H2168a2.51,2.51,0,0,1-2.49-2.49v-9.22a2.5,2.5,0,0,1,2.49-2.5h3.15v-9.16h-8.64a2.45,2.45,0,0,1-2.43-2.44v-22.7a2.43,2.43,0,0,1,2.42-2.44h8.86V384.61a2.48,2.48,0,0,1,2.48-2.5h68.49a2.5,2.5,0,0,1,2.4,1.82l6.36,22.41H2276a2.5,2.5,0,0,1,2.49,2.5v10.48h.49a3.47,3.47,0,0,1,3.47,3.47V425a3.47,3.47,0,0,1-3.47,3.47h-.49v7.91h2.73a2.49,2.49,0,0,1,2.53,2.45Z" fill="#7bcce6"/><path d="M2170.28,1034.15v9.22a2.48,2.48,0,0,1-2.49,2.49h-18.86a12.79,12.79,0,0,1-25.48,0h-28.74a12.79,12.79,0,0,1-25.48,0h-14.68a2.51,2.51,0,0,1-2.49-2.49v-9.22a2.5,2.5,0,0,1,2.49-2.5h3.15v-9.16h-8.64a2.45,2.45,0,0,1-2.43-2.44v-22.7a2.43,2.43,0,0,1,2.42-2.44h8.86V979.84a2.48,2.48,0,0,1,2.48-2.5h68.49a2.5,2.5,0,0,1,2.4,1.82l6.36,22.42h24.93a2.48,2.48,0,0,1,2.49,2.49v10.48h.49A3.47,3.47,0,0,1,2169,1018v2.25a3.47,3.47,0,0,1-3.47,3.47H2165v7.91h2.73a2.48,2.48,0,0,1,2.51,2.47Z" fill="#7bcce6"/><path d="M1991.43,128.46v9.3a3.07,3.07,0,0,0,3,3.05H2008a16.73,16.73,0,0,0,29.91,0h93.72a16.73,16.73,0,0,0,29.91,0h9.07a5.56,5.56,0,0,0,4.24-2l4.33-5.11a2.59,2.59,0,0,0,.61-1.66V117.21a2.64,2.64,0,0,0-2.64-2.64h-1.71a2.77,2.77,0,0,0,1.62-2.53v-4.48a2.81,2.81,0,0,0-2.81-2.8h-1.06V99.42a3,3,0,0,0-3.09-3h-.21l-15.71,1.88,3.92-23.21-.55-.1-4,23.37-24.54,3L2102,99.61V90.89a4.35,4.35,0,0,0-8.69-.42,2.94,2.94,0,0,0,0,.42v8.19l-14.65-.9V93.57a2.17,2.17,0,1,0-4.34,0v4.35l-13.78-.84c6.56-7.84,18.59-18.87,35.64-21.24a1,1,0,0,0,.85-1V70.53a1,1,0,0,0-1-1H2096c-27.22,2.54-43.58,25.17-45.37,27.77l-36.66,6.33a27.14,27.14,0,0,0-9.78,3.72,1.41,1.41,0,0,0-1.07-.48h-4.62a1.43,1.43,0,0,0-1.42,1.43v5.49A27.07,27.07,0,0,0,1991.43,128.46Z" fill="#7bcce6"/><path d="M1673.23,85.67v2.81a2.16,2.16,0,0,1-1.34,2v7.14a1.92,1.92,0,0,1-1.91,1.91h-7.45a10.78,10.78,0,0,1-21.53,0h-43.53a10.78,10.78,0,0,1-21.53,0h-6a1.92,1.92,0,0,1-1.91-1.91h0V86.87a1.9,1.9,0,0,1,.56-1.35,1.93,1.93,0,0,1,1.24-.56,2.11,2.11,0,0,1-1-1.82V80.32a2.16,2.16,0,0,1,2.13-2.16v-1a2,2,0,0,1,.45-1.24l8.07-15.3a6.76,6.76,0,0,1,4.44-3.06c49.8-14.37,65,9.66,66.62,11.89.28.37,6.6,1.92,12.68,4.44a14.07,14.07,0,0,1,8.23,9.67,2.22,2.22,0,0,1,1.12.59A2.19,2.19,0,0,1,1673.23,85.67Z" fill="#7bcce6"/><path d="M1668.94,346.47v9.22a2.48,2.48,0,0,1-2.49,2.49h-18.86a12.78,12.78,0,0,1-25.48,0h-28.74a12.78,12.78,0,0,1-25.48,0h-14.68a2.48,2.48,0,0,1-2.49-2.47v-9.24a2.48,2.48,0,0,1,2.47-2.49h3.17v-9.17h-8.64a2.43,2.43,0,0,1-2.43-2.43h0V309.67a2.43,2.43,0,0,1,2.42-2.44h8.85V292.17a2.5,2.5,0,0,1,2.5-2.5h68.48a2.5,2.5,0,0,1,2.4,1.81l6.36,22.42h24.92a2.48,2.48,0,0,1,2.5,2.48v10.49h.49a3.47,3.47,0,0,1,3.47,3.47h0v2.24a3.47,3.47,0,0,1-3.46,3.48h-.5V344h2.73A2.49,2.49,0,0,1,1668.94,346.47Z" fill="#7bcce6"/><path d="M2437,565.63v2.81a2.16,2.16,0,0,1-1.34,2v7.14a1.9,1.9,0,0,1-1.89,1.91h-7.47a10.78,10.78,0,0,1-21.53,0h-43.52a10.78,10.78,0,0,1-21.54,0h-5.94a1.92,1.92,0,0,1-1.92-1.9h0V566.83a1.92,1.92,0,0,1,1.8-1.91,2.16,2.16,0,0,1-1-1.83v-2.81a2.16,2.16,0,0,1,2.13-2.16v-1a2,2,0,0,1,.45-1.24l8.07-15.31a6.73,6.73,0,0,1,4.44-3c49.79-14.37,65,9.66,66.62,11.89.27.36,6.6,1.92,12.67,4.44a14.06,14.06,0,0,1,8.24,9.67,2.13,2.13,0,0,1,1.73,2.06Z" fill="#7bcce6"/><path d="M2664.35,104.73v6.39a1.75,1.75,0,0,1-1.75,1.75h-11a11.46,11.46,0,0,1-22.24,0h-62.79a11.46,11.46,0,0,1-22.24,0h-10.46a1.75,1.75,0,0,1-1.75-1.75v-6.39a1.75,1.75,0,0,1,1.75-1.75h.08l.38-6.11a2.72,2.72,0,0,1-2.21-2.68v-1.9a2.73,2.73,0,0,1,2.66-2.73l.64-10.44a4.44,4.44,0,0,1,4-4.15l9.91-1s17.93-10,39.24-9,38.18,12.72,38.18,12.72,13.64.37,24.09,4.74a18.7,18.7,0,0,1,8.61,7.31,2.86,2.86,0,0,1,1.08-.22,2.73,2.73,0,0,1,2.73,2.73v1.9a2.73,2.73,0,0,1-1.2,2.26h0a19.34,19.34,0,0,1,.32,3.48v3h.22a1.75,1.75,0,0,1,1.75,1.75Z" fill="#7bcce6"/><path d="M3080.38,784.06v6.39a1.75,1.75,0,0,1-1.75,1.75h-11a11.46,11.46,0,0,1-22.24,0H2982.6a11.46,11.46,0,0,1-22.24,0H2949.9a1.75,1.75,0,0,1-1.75-1.75v-6.39a1.75,1.75,0,0,1,1.75-1.75h.09l.37-6.11a2.72,2.72,0,0,1-2.21-2.68v-1.9a2.73,2.73,0,0,1,2.66-2.73l.64-10.44a4.44,4.44,0,0,1,4-4.15l9.91-1s17.93-10,39.24-9S3042.78,757,3042.78,757s13.64.37,24.09,4.74a18.7,18.7,0,0,1,8.61,7.31,2.86,2.86,0,0,1,1.08-.22,2.73,2.73,0,0,1,2.73,2.73v1.9a2.73,2.73,0,0,1-1.2,2.26h0a19.34,19.34,0,0,1,.32,3.48v3h.22a1.75,1.75,0,0,1,1.75,1.75Z" fill="#7bcce6"/><path d="M2544.82,739.85v6.39a1.75,1.75,0,0,0,1.75,1.75h11a11.46,11.46,0,0,0,22.24,0h62.79a11.46,11.46,0,0,0,22.24,0h10.46a1.75,1.75,0,0,0,1.76-1.74h0v-6.39a1.75,1.75,0,0,0-1.75-1.75h-.09l-.37-6.11a2.73,2.73,0,0,0,2.21-2.68v-1.9a2.73,2.73,0,0,0-2.67-2.73l-.64-10.45a4.43,4.43,0,0,0-4-4.14l-9.91-1s-17.93-10.05-39.24-9-38.18,12.72-38.18,12.72-13.64.36-24.09,4.74a18.61,18.61,0,0,0-8.61,7.31,2.68,2.68,0,0,0-1.08-.22,2.71,2.71,0,0,0-2.73,2.69v1.94a2.73,2.73,0,0,0,1.2,2.26h0a19.34,19.34,0,0,0-.32,3.48v3h-.22a1.75,1.75,0,0,0-1.75,1.75Z" fill="#7bcce6"/><path d="M2774.46,539.77v9.3a3.07,3.07,0,0,0,3.05,3h13.57a16.73,16.73,0,0,0,29.91,0h93.72a16.73,16.73,0,0,0,29.91,0h9.07a5.56,5.56,0,0,0,4.24-2l4.33-5.11a2.57,2.57,0,0,0,.61-1.66V528.52a2.64,2.64,0,0,0-2.64-2.64h-1.71a2.75,2.75,0,0,0,1.61-2.53v-4.47a2.8,2.8,0,0,0-2.79-2.81h-1.07v-5.34a3.06,3.06,0,0,0-3.11-3h-.2l-15.7,1.88,3.92-23.21-.56-.1-3.94,23.38-24.54,2.94-27.14-1.7V502.2a4.35,4.35,0,0,0-8.69-.42,2.94,2.94,0,0,0,0,.42v8.19l-14.65-.9v-4.61a2.17,2.17,0,0,0-4.34,0v4.35l-13.78-.84c6.56-7.84,18.59-18.87,35.64-21.24a1,1,0,0,0,.85-.95v-4.36a1,1,0,0,0-1-1H2879c-27.21,2.54-43.57,25.17-45.36,27.77L2797,515a27,27,0,0,0-9.78,3.73,1.42,1.42,0,0,0-1.07-.49h-4.62a1.43,1.43,0,0,0-1.42,1.43v5.49A27.08,27.08,0,0,0,2774.46,539.77Z" fill="#7bcce6"/><path d="M2921.89,306.35v9.22a2.48,2.48,0,0,1-2.48,2.5h-18.87a12.78,12.78,0,0,1-25.47,0h-28.75a12.79,12.79,0,0,1-25.48,0h-14.67a2.5,2.5,0,0,1-2.5-2.5v-9.22a2.5,2.5,0,0,1,2.5-2.49h3.14V294.7h-8.63a2.44,2.44,0,0,1-2.44-2.44v-22.7a2.44,2.44,0,0,1,2.44-2.44h8.84V252.05a2.48,2.48,0,0,1,2.48-2.5h68.5a2.52,2.52,0,0,1,2.4,1.82l6.36,22.41h24.92a2.48,2.48,0,0,1,2.49,2.49h0v10.48h.49a3.47,3.47,0,0,1,3.48,3.46h0v2.25a3.48,3.48,0,0,1-3.48,3.47h-.49v7.91h2.73A2.48,2.48,0,0,1,2921.89,306.35Z" fill="#7bcce6"/><path d="M2802,1031.29v9.22a2.48,2.48,0,0,1-2.47,2.49h-18.88a12.78,12.78,0,0,1-25.47,0h-28.75a12.78,12.78,0,0,1-25.48,0h-14.67a2.48,2.48,0,0,1-2.5-2.48h0v-9.22a2.48,2.48,0,0,1,2.49-2.49h3.15v-9.17h-8.63a2.43,2.43,0,0,1-2.44-2.42h0V994.5a2.44,2.44,0,0,1,2.44-2.44h8.84V977a2.48,2.48,0,0,1,2.48-2.5h68.5a2.51,2.51,0,0,1,2.4,1.81l6.36,22.42h24.92a2.48,2.48,0,0,1,2.49,2.49h0v10.47h.49a3.48,3.48,0,0,1,3.48,3.48v2.24a3.48,3.48,0,0,1-3.48,3.48h-.49v7.91h2.73a2.48,2.48,0,0,1,2.49,2.47Z" fill="#7bcce6"/><path d="M3336.12,341.13v6.39a1.75,1.75,0,0,1-1.75,1.75h-11a11.46,11.46,0,0,1-22.24,0h-62.78a11.46,11.46,0,0,1-22.24,0h-10.47a1.75,1.75,0,0,1-1.75-1.75v-6.39a1.75,1.75,0,0,1,1.75-1.75h.09l.37-6.11a2.73,2.73,0,0,1-2.21-2.68v-1.9a2.73,2.73,0,0,1,2.66-2.73l.64-10.45a4.43,4.43,0,0,1,4-4.14l9.92-1s17.93-10.05,39.23-9,38.19,12.72,38.19,12.72,13.64.36,24.09,4.74a18.63,18.63,0,0,1,8.6,7.31,3,3,0,0,1,1.09-.22,2.71,2.71,0,0,1,2.73,2.69v1.94a2.73,2.73,0,0,1-1.2,2.26h0a19.33,19.33,0,0,1,.31,3.48v3h.23a1.75,1.75,0,0,1,1.74,1.76Z" fill="#7bcce6"/><path d="M3135.55,92.89v6.39a1.75,1.75,0,0,0,1.75,1.75h11a11.46,11.46,0,0,0,22.24,0h62.79a11.46,11.46,0,0,0,22.24,0H3266a1.75,1.75,0,0,0,1.76-1.74h0V92.89a1.75,1.75,0,0,0-1.75-1.75h-.09l-.38-6.11a2.72,2.72,0,0,0,2.22-2.68v-1.9a2.73,2.73,0,0,0-2.67-2.73l-.64-10.45a4.43,4.43,0,0,0-4-4.14l-9.91-1s-17.93-10-39.24-9-38.18,12.72-38.18,12.72-13.64.36-24.09,4.74a18.65,18.65,0,0,0-8.61,7.31,2.86,2.86,0,0,0-1.08-.22,2.71,2.71,0,0,0-2.73,2.69v1.94a2.73,2.73,0,0,0,1.2,2.26h0a19.34,19.34,0,0,0-.32,3.48v3h-.22a1.75,1.75,0,0,0-1.72,1.78Z" fill="#7bcce6"/><path d="M3655.22,200.48v6.39a1.75,1.75,0,0,1-1.75,1.75h-11a11.46,11.46,0,0,1-22.24,0h-62.79a11.46,11.46,0,0,1-22.24,0h-10.47a1.75,1.75,0,0,1-1.75-1.75v-6.39a1.75,1.75,0,0,1,1.75-1.75h.09l.37-6.11a2.73,2.73,0,0,1-2.21-2.68V188a2.73,2.73,0,0,1,2.67-2.73l.64-10.45a4.43,4.43,0,0,1,4-4.14l9.91-1s17.93-10,39.23-9,38.19,12.72,38.19,12.72,13.64.36,24.09,4.74a18.58,18.58,0,0,1,8.6,7.31,3,3,0,0,1,1.09-.22,2.73,2.73,0,0,1,1.93.79,2.76,2.76,0,0,1,.8,1.94v1.9a2.73,2.73,0,0,1-1.2,2.26h0a19.34,19.34,0,0,1,.32,3.48v3h.22a1.75,1.75,0,0,1,1.75,1.75Z" fill="#7bcce6"/><path d="M3711.4,491.08v9.31a3.07,3.07,0,0,1-3.05,3.05h-13.57a16.73,16.73,0,0,1-29.91,0h-93.71a16.74,16.74,0,0,1-29.92,0h-9.07a5.56,5.56,0,0,1-4.24-2l-4.32-5.11a2.53,2.53,0,0,1-.62-1.66V479.83a2.65,2.65,0,0,1,2.64-2.63h1.71a2.77,2.77,0,0,1-1.61-2.54v-4.47a2.8,2.8,0,0,1,2.8-2.8h1.07v-5.34a3.06,3.06,0,0,1,3.06-3.06h.24l15.71,1.88-3.93-23.2.56-.1,3.94,23.37,24.54,2.94,27.11-1.65v-8.73a4.35,4.35,0,0,1,8.69-.42,2.94,2.94,0,0,1,0,.42v8.19l14.65-.89v-4.62a2.17,2.17,0,0,1,4.34,0v4.36l13.78-.85c-6.55-7.83-18.59-18.86-35.64-21.23a1,1,0,0,1-.84-1v-4.35a1,1,0,0,1,1-1h.06c27.21,2.54,43.57,25.17,45.37,27.77l36.66,6.32a27.29,27.29,0,0,1,9.77,3.73,1.41,1.41,0,0,1,1.07-.48h4.62a1.43,1.43,0,0,1,1.42,1.43v5.48A27.12,27.12,0,0,1,3711.4,491.08Z" fill="#7bcce6"/><path d="M3552.49,1033.26v9.31a3,3,0,0,0,3,3h13.57a16.73,16.73,0,0,0,29.91,0h93.72a16.74,16.74,0,0,0,29.92,0h9.06a5.58,5.58,0,0,0,4.25-2l4.32-5.11a2.52,2.52,0,0,0,.61-1.66V1022a2.63,2.63,0,0,0-2.63-2.63h-1.71a2.81,2.81,0,0,0,1.61-2.54v-4.47a2.8,2.8,0,0,0-2.8-2.8h-1.07v-5.34a3.06,3.06,0,0,0-3.06-3.06H3731l-15.71,1.88,3.92-23.2-.55-.1-3.94,23.37-24.54,2.94-27.12-1.65v-8.73a4.34,4.34,0,1,0-8.68,0v8.22l-14.66-.89v-4.62a2.17,2.17,0,0,0-4.34,0v4.36l-13.78-.85c6.56-7.83,18.59-18.86,35.65-21.23a1,1,0,0,0,.84-1v-4.35a1,1,0,0,0-1-1H3657c-27.21,2.54-43.58,25.17-45.37,27.77l-36.66,6.32a27.34,27.34,0,0,0-9.78,3.73,1.39,1.39,0,0,0-1.06-.48h-4.62a1.43,1.43,0,0,0-1.43,1.43v5.48A27.12,27.12,0,0,0,3552.49,1033.26Z" fill="#7bcce6"/><path d="M3494.9,836.42v9.22a2.48,2.48,0,0,1-2.47,2.49h-18.88a12.78,12.78,0,0,1-25.47,0h-28.75a12.78,12.78,0,0,1-25.48,0h-14.67a2.48,2.48,0,0,1-2.5-2.48h0v-9.22a2.48,2.48,0,0,1,2.49-2.49h3.15v-9.17h-8.63a2.43,2.43,0,0,1-2.44-2.42h0V799.62a2.43,2.43,0,0,1,2.43-2.43h8.85V782.12a2.48,2.48,0,0,1,2.48-2.5h68.5a2.51,2.51,0,0,1,2.4,1.81l6.36,22.42h24.92a2.48,2.48,0,0,1,2.49,2.49h0v10.47h.49a3.47,3.47,0,0,1,3.48,3.46v2.26a3.48,3.48,0,0,1-3.48,3.48h-.49v7.91h2.73a2.48,2.48,0,0,1,2.49,2.47Z" fill="#7bcce6"/><path d="M4026.6,553.79v2.81a2.17,2.17,0,0,1-1.34,2v7.14a1.93,1.93,0,0,1-1.91,1.91h-7.45a10.78,10.78,0,0,1-21.53,0h-43.53a10.78,10.78,0,0,1-21.53,0h-5.95a1.93,1.93,0,0,1-1.91-1.91V555a1.88,1.88,0,0,1,.56-1.34,1.83,1.83,0,0,1,1.24-.56,2.18,2.18,0,0,1-1-1.83v-2.81a2.15,2.15,0,0,1,2.13-2.16v-1a2,2,0,0,1,.45-1.24l8.07-15.31a6.75,6.75,0,0,1,4.44-3c49.8-14.38,65,9.65,66.62,11.89.28.36,6.6,1.91,12.68,4.44a14,14,0,0,1,8.23,9.67,2.15,2.15,0,0,1,1.75,2.12Z" fill="#7bcce6"/><path d="M3840.74,713.29v6.4a1.75,1.75,0,0,1-1.75,1.75h-11a11.47,11.47,0,0,1-22.24,0H3743a11.47,11.47,0,0,1-22.24,0H3710.3a1.76,1.76,0,0,1-1.76-1.75v-6.4a1.76,1.76,0,0,1,1.76-1.75h.08l.38-6.1a2.72,2.72,0,0,1-2.22-2.68v-1.91a2.73,2.73,0,0,1,2.67-2.72l.64-10.45a4.43,4.43,0,0,1,4-4.14l9.91-1s17.93-10,39.24-9,38.18,12.72,38.18,12.72,13.64.37,24.09,4.75a18.65,18.65,0,0,1,8.61,7.31,2.69,2.69,0,0,1,1.08-.23,2.73,2.73,0,0,1,2.73,2.73v1.91a2.68,2.68,0,0,1-1.2,2.25h0a19.34,19.34,0,0,1,.32,3.48v3h.22a1.75,1.75,0,0,1,1.71,1.79Z" fill="#7bcce6"/><path d="M3983.27,135.68v9.22a2.48,2.48,0,0,1-2.47,2.49h-18.88a12.78,12.78,0,0,1-25.47,0H3907.7a12.78,12.78,0,0,1-25.48,0h-14.67a2.48,2.48,0,0,1-2.5-2.48h0v-9.22a2.48,2.48,0,0,1,2.49-2.49h3.15V124h-8.63a2.43,2.43,0,0,1-2.44-2.42h0V98.89a2.44,2.44,0,0,1,2.44-2.44h8.84V81.38a2.48,2.48,0,0,1,2.48-2.5h68.5a2.51,2.51,0,0,1,2.4,1.81l6.36,22.42h24.92a2.48,2.48,0,0,1,2.49,2.49h0v10.47h.49a3.48,3.48,0,0,1,3.48,3.48v2.24a3.48,3.48,0,0,1-3.48,3.48h-.49v7.91h2.73a2.48,2.48,0,0,1,2.49,2.47Z" fill="#7bcce6"/><rect width="4084.68" height="1125.76" fill="none"/><circle cx="1795.36" cy="872.69" r="66.11" fill="#7bcce6"/><circle cx="1795.36" cy="872.69" r="51" fill="#7df8ff"/><path d="M1795.36,872.69v-51a51,51,0,0,1,48.29,34.57Z" opacity="0.6" fill="url(#a)" style="isolation:isolate"/><circle cx="1795.36" cy="872.69" r="7.55" fill="#7bcce6"/><rect x="1787.34" y="798.4" width="16.03" height="16.03" fill="#7bcce6"/><rect x="1776.58" y="782.37" width="37.55" height="16.03" rx="0.76" fill="#7bcce6"/><circle cx="2502.63" cy="302.95" r="66.11" fill="#7bcce6"/><circle cx="2502.63" cy="302.95" r="51" fill="#7df8ff"/><path d="M2502.63,303V252a51,51,0,0,1,48.3,34.56Z" opacity="0.6" fill="url(#b)" style="isolation:isolate"/><circle cx="2502.63" cy="302.95" r="7.55" fill="#7bcce6"/><rect x="2494.62" y="228.66" width="16.03" height="16.03" fill="#7bcce6"/><rect x="2483.85" y="212.63" width="37.55" height="16.03" rx="0.76" fill="#7bcce6"/><circle cx="981.57" cy="122.49" r="66.11" transform="translate(200.88 729.95) rotate(-45)" fill="#7bcce6"/><circle cx="981.57" cy="122.49" r="51" transform="translate(719.46 1076.32) rotate(-81.75)" fill="#7df8ff"/><path d="M981.57,71.49a51,51,0,1,1-51,51h51v-51" opacity="0.6" fill="url(#c)" style="isolation:isolate"/><circle cx="981.57" cy="122.49" r="7.55" fill="#7bcce6"/><rect x="973.55" y="48.2" width="16.03" height="16.03" fill="#7bcce6"/><rect x="962.79" y="32.17" width="37.55" height="16.03" rx="0.76" fill="#7bcce6"/><circle cx="3859.62" cy="339.08" r="66.11" fill="#7bcce6"/><circle cx="3859.62" cy="339.08" r="51" fill="#7df8ff"/><path d="M3859.62,288.08a51,51,0,1,1-51,51h51v-51" opacity="0.6" fill="url(#d)" style="isolation:isolate"/><circle cx="3859.62" cy="339.08" r="7.55" fill="#7bcce6"/><rect x="3851.61" y="264.79" width="16.03" height="16.03" fill="#7bcce6"/><rect x="3840.85" y="248.76" width="37.55" height="16.03" rx="0.76" fill="#7bcce6"/><circle cx="410.98" cy="713.91" r="66.11" fill="#7bcce6"/><circle cx="410.98" cy="713.91" r="51" fill="#7df8ff"/><path d="M462,713.91a51,51,0,0,1-51,51v-102A51,51,0,0,1,462,713.91Z" opacity="0.6" fill="url(#e)" style="isolation:isolate"/><circle cx="410.98" cy="713.91" r="7.55" fill="#7bcce6"/><rect x="402.96" y="639.61" width="16.03" height="16.03" fill="#7bcce6"/><rect x="392.2" y="623.59" width="37.55" height="16.03" rx="0.76" fill="#7bcce6"/><circle cx="3201.66" cy="969.17" r="66.11" fill="#7bcce6"/><circle cx="3201.66" cy="969.17" r="51" fill="#7df8ff"/><path d="M3252.66,969.17a51,51,0,0,1-51,51h0v-102a51,51,0,0,1,51,51Z" opacity="0.6" fill="url(#f)" style="isolation:isolate"/><circle cx="3201.66" cy="969.17" r="7.55" fill="#7bcce6"/><rect x="3193.65" y="894.87" width="16.03" height="16.03" fill="#7bcce6"/><rect x="3182.88" y="878.85" width="37.55" height="16.03" rx="0.76" fill="#7bcce6"/><polygon points="206.51 241.37 195.25 243.98 193.31 232.44 242.05 163.43 255.25 172.36 206.51 241.37" fill="#8ae5f0"/><ellipse cx="248.65" cy="167.9" rx="25.37" ry="24.82" fill="#8ae5f0"/><polygon points="218.25 234.14 210.65 235.3 216.67 226.77 218.25 234.14" fill="#8ae5f0"/><polygon points="223.78 226.3 216.18 227.46 222.21 218.93 223.78 226.3" fill="#8ae5f0"/><polygon points="229.32 218.46 221.72 219.62 227.74 211.09 229.32 218.46" fill="#8ae5f0"/><polygon points="234.86 210.63 227.25 211.78 233.28 203.25 234.86 210.63" fill="#8ae5f0"/><polygon points="240.39 202.79 232.79 203.95 238.81 195.42 240.39 202.79" fill="#8ae5f0"/><polygon points="160.42 202.81 148.4 199.85 152.38 187.94 229.83 147.86 237.87 162.72 160.42 202.81" fill="#7bcce6"/><polygon points="175.23 201.61 167.41 199.04 177.45 193.85 175.23 201.61" fill="#7bcce6"/><polygon points="184.45 196.84 176.64 194.27 186.67 189.07 184.45 196.84" fill="#7bcce6"/><polygon points="193.67 192.07 185.86 189.5 195.89 184.3 193.67 192.07" fill="#7bcce6"/><polygon points="202.89 187.3 195.08 184.72 205.11 179.53 202.89 187.3" fill="#7bcce6"/><polygon points="212.11 182.53 204.3 179.95 214.33 174.76 212.11 182.53" fill="#7bcce6"/><path d="M261.6,140.92a27.47,27.47,0,0,0-36.73-11.07,26.31,26.31,0,0,0-11.62,35.35l.31.59a27.47,27.47,0,0,0,36.73,11.07,26.3,26.3,0,0,0,11.63-35.33Zm-25.45,14.86a6.85,6.85,0,0,1,2.78-9.28l.16-.08a7.16,7.16,0,0,1,9.57,2.88,6.86,6.86,0,0,1-2.79,9.28l-.16.08a7.16,7.16,0,0,1-9.56-2.88Z" fill="#7bcce6"/><path d="M247.09,156.21a24.38,24.38,0,1,1,24.29,2.26" fill="none" stroke="#a1f0ff" stroke-linecap="round" stroke-miterlimit="10" stroke-width="4.72"/><path d="M270,154.41s2.27,2.47,3.65,9l-4.17-2.07a51.86,51.86,0,0,0-1.11-5.79Z" fill="#7bcce6"/><path d="M245.15,158.92a6.87,6.87,0,0,0,4.32-6l6,2.22L248.65,165Z" fill="#7bcce6"/><polygon points="224.79 1018.48 236.04 1021.09 237.99 1009.55 189.25 940.54 176.05 949.47 224.79 1018.48" fill="#8ae5f0"/><ellipse cx="182.65" cy="945" rx="25.37" ry="24.82" fill="#8ae5f0"/><polygon points="213.05 1011.25 220.65 1012.41 214.63 1003.88 213.05 1011.25" fill="#8ae5f0"/><polygon points="207.51 1003.41 215.11 1004.57 209.09 996.04 207.51 1003.41" fill="#8ae5f0"/><polygon points="201.97 995.57 209.58 996.73 203.55 988.2 201.97 995.57" fill="#8ae5f0"/><polygon points="196.44 987.73 204.04 988.89 198.02 980.36 196.44 987.73" fill="#8ae5f0"/><polygon points="190.9 979.89 198.51 981.05 192.48 972.52 190.9 979.89" fill="#8ae5f0"/><polygon points="270.88 979.91 282.89 976.96 278.91 965.05 201.46 924.97 193.43 939.83 270.88 979.91" fill="#7bcce6"/><polygon points="256.07 978.72 263.88 976.15 253.85 970.95 256.07 978.72" fill="#7bcce6"/><polygon points="246.85 973.95 254.66 971.38 244.63 966.18 246.85 973.95" fill="#7bcce6"/><polygon points="237.63 969.18 245.44 966.6 235.41 961.41 237.63 969.18" fill="#7bcce6"/><polygon points="228.41 964.4 236.22 961.83 226.18 956.64 228.41 964.4" fill="#7bcce6"/><polygon points="219.19 959.63 227 957.06 216.96 951.87 219.19 959.63" fill="#7bcce6"/><path d="M181,954a27.48,27.48,0,0,0,36.73-11.07A26.33,26.33,0,0,0,207,907.29l-.56-.29a27.47,27.47,0,0,0-36.73,11,26.31,26.31,0,0,0,10.64,35.65Zm4.57-18.2a6.86,6.86,0,0,1-3.08-9.2,1.19,1.19,0,0,1,.08-.16,7.16,7.16,0,0,1,9.57-2.89,6.85,6.85,0,0,1,3.09,9.18l-.09.18a7.14,7.14,0,0,1-9.56,2.86Z" fill="#7bcce6"/><path d="M184.21,933.32a24.36,24.36,0,1,0-34-5.8,25.5,25.5,0,0,0,3.77,4.2,24.31,24.31,0,0,0,6,3.86" fill="none" stroke="#a1f0ff" stroke-linecap="round" stroke-miterlimit="10" stroke-width="4.72"/><path d="M161.34,931.51s-2.26,2.48-3.65,9l4.18-2.07a54.2,54.2,0,0,1,1.1-5.79Z" fill="#7bcce6"/><path d="M186.14,936a6.87,6.87,0,0,1-4.32-6l-6,2.21,6.86,9.86Z" fill="#7bcce6"/><polygon points="1909.46 358.79 1920.72 361.4 1922.66 349.86 1873.92 280.85 1860.73 289.78 1909.46 358.79" fill="#8ae5f0"/><ellipse cx="1867.32" cy="285.31" rx="25.37" ry="24.82" fill="#8ae5f0"/><polygon points="1897.72 351.56 1905.33 352.72 1899.3 344.19 1897.72 351.56" fill="#8ae5f0"/><polygon points="1892.19 343.72 1899.79 344.88 1893.77 336.35 1892.19 343.72" fill="#8ae5f0"/><polygon points="1886.65 335.88 1894.26 337.04 1888.23 328.51 1886.65 335.88" fill="#8ae5f0"/><polygon points="1881.12 328.04 1888.72 329.2 1882.7 320.67 1881.12 328.04" fill="#8ae5f0"/><polygon points="1875.58 320.2 1883.18 321.37 1877.16 312.84 1875.58 320.2" fill="#8ae5f0"/><polygon points="1955.56 320.23 1967.57 317.27 1963.59 305.36 1886.14 265.28 1878.11 280.14 1955.56 320.23" fill="#7bcce6"/><polygon points="1940.74 319.03 1948.56 316.46 1938.52 311.26 1940.74 319.03" fill="#7bcce6"/><polygon points="1931.52 314.26 1939.34 311.69 1929.3 306.49 1931.52 314.26" fill="#7bcce6"/><polygon points="1922.3 309.49 1930.12 306.91 1920.08 301.72 1922.3 309.49" fill="#7bcce6"/><polygon points="1913.08 304.72 1920.89 302.14 1910.86 296.95 1913.08 304.72" fill="#7bcce6"/><polygon points="1903.86 299.94 1911.67 297.37 1901.64 292.18 1903.86 299.94" fill="#7bcce6"/><path d="M1865.68,294.28a27.47,27.47,0,0,0,36.73-11.07,26.31,26.31,0,0,0-10.72-35.63c-.19-.11-.39-.21-.59-.31a27.47,27.47,0,0,0-36.73,11.07A26.31,26.31,0,0,0,1865.09,294C1865.28,294.08,1865.48,294.18,1865.68,294.28Zm4.58-18.2a6.85,6.85,0,0,1-3.09-9.18l.09-.18a7.17,7.17,0,0,1,9.57-2.89,6.87,6.87,0,0,1,3,9.23l-.07.14A7.16,7.16,0,0,1,1870.26,276.08Z" fill="#7bcce6"/><path d="M1868.88,273.63a24.38,24.38,0,1,0-24.29,2.26" fill="none" stroke="#a1f0ff" stroke-linecap="round" stroke-miterlimit="10" stroke-width="4.72"/><path d="M1846,271.82s-2.27,2.48-3.65,9l4.18-2.07a49.64,49.64,0,0,1,1.1-5.79Z" fill="#7bcce6"/><path d="M1870.82,276.34a6.87,6.87,0,0,1-4.32-6l-6,2.22,6.85,9.85Z" fill="#7bcce6"/><polygon points="1044.6 680.08 1055.85 682.7 1057.8 671.16 1009.06 602.15 995.86 611.07 1044.6 680.08" fill="#8ae5f0"/><ellipse cx="1002.46" cy="606.61" rx="25.37" ry="24.82" fill="#8ae5f0"/><polygon points="1032.86 672.85 1040.46 674.01 1034.44 665.48 1032.86 672.85" fill="#8ae5f0"/><polygon points="1027.32 665.01 1034.93 666.17 1028.9 657.65 1027.32 665.01" fill="#8ae5f0"/><polygon points="1021.79 657.18 1029.39 658.34 1023.37 649.81 1021.79 657.18" fill="#8ae5f0"/><polygon points="1016.25 649.34 1023.86 650.5 1017.83 641.97 1016.25 649.34" fill="#8ae5f0"/><polygon points="1010.72 641.5 1018.32 642.66 1012.29 634.13 1010.72 641.5" fill="#8ae5f0"/><polygon points="1090.69 641.52 1102.71 638.56 1098.72 626.66 1021.27 586.57 1013.24 601.44 1090.69 641.52" fill="#7bcce6"/><polygon points="1075.88 640.33 1083.69 637.75 1073.66 632.56 1075.88 640.33" fill="#7bcce6"/><polygon points="1066.66 635.56 1074.47 632.98 1064.44 627.79 1066.66 635.56" fill="#7bcce6"/><polygon points="1057.44 630.78 1065.25 628.21 1055.22 623.02 1057.44 630.78" fill="#7bcce6"/><polygon points="1048.22 626.01 1056.03 623.44 1046 618.24 1048.22 626.01" fill="#7bcce6"/><polygon points="1039 621.24 1046.81 618.66 1036.78 613.47 1039 621.24" fill="#7bcce6"/><path d="M1000.82,615.58a27.47,27.47,0,0,0,36.73-11.07,26.3,26.3,0,0,0-10.71-35.62c-.2-.11-.4-.22-.61-.32a27.47,27.47,0,0,0-36.73,11.07,26.31,26.31,0,0,0,10.72,35.63Zm4.57-18.2a6.86,6.86,0,0,1-3-9.22l.08-.15a7.16,7.16,0,0,1,9.56-2.88,6.85,6.85,0,0,1,3.09,9.18l-.09.18A7.17,7.17,0,0,1,1005.39,597.38Z" fill="#7bcce6"/><path d="M1004,594.92a24.36,24.36,0,1,0-34-5.8,25.12,25.12,0,0,0,3.77,4.21,24.5,24.5,0,0,0,6,3.86" fill="none" stroke="#a1f0ff" stroke-linecap="round" stroke-miterlimit="10" stroke-width="4.72"/><path d="M981.16,593.12s-2.27,2.47-3.66,9l4.18-2.07a54.2,54.2,0,0,1,1.1-5.79Z" fill="#7bcce6"/><path d="M1006,597.63a6.86,6.86,0,0,1-4.31-6l-6,2.22,6.85,9.86Z" fill="#7bcce6"/><polygon points="3957.42 1028.96 3968.67 1031.58 3970.61 1020.04 3921.88 951.03 3908.68 959.95 3957.42 1028.96" fill="#8ae5f0"/><ellipse cx="3915.28" cy="955.49" rx="25.37" ry="24.82" fill="#8ae5f0"/><polygon points="3945.68 1021.73 3953.28 1022.89 3947.26 1014.36 3945.68 1021.73" fill="#8ae5f0"/><polygon points="3940.14 1013.89 3947.74 1015.05 3941.72 1006.52 3940.14 1013.89" fill="#8ae5f0"/><polygon points="3934.6 1006.05 3942.21 1007.22 3936.18 998.69 3934.6 1006.05" fill="#8ae5f0"/><polygon points="3929.07 998.22 3936.67 999.38 3930.65 990.85 3929.07 998.22" fill="#8ae5f0"/><polygon points="3923.53 990.38 3931.14 991.54 3925.11 983.01 3923.53 990.38" fill="#8ae5f0"/><polygon points="4003.51 990.4 4015.52 987.44 4011.54 975.53 3934.09 935.45 3926.06 950.31 4003.51 990.4" fill="#7bcce6"/><polygon points="3988.7 989.21 3996.51 986.63 3986.48 981.44 3988.7 989.21" fill="#7bcce6"/><polygon points="3979.48 984.43 3987.29 981.86 3977.26 976.67 3979.48 984.43" fill="#7bcce6"/><polygon points="3970.26 979.66 3978.07 977.09 3968.03 971.89 3970.26 979.66" fill="#7bcce6"/><polygon points="3961.03 974.89 3968.85 972.32 3958.81 967.12 3961.03 974.89" fill="#7bcce6"/><polygon points="3951.82 970.12 3959.63 967.54 3949.59 962.35 3951.82 970.12" fill="#7bcce6"/><path d="M3913.64,964.46a27.48,27.48,0,0,0,36.73-11.08,26.32,26.32,0,0,0-10.74-35.64l-.58-.3a27.48,27.48,0,0,0-36.73,11.08A26.31,26.31,0,0,0,3913,964.15Zm4.57-18.21a6.86,6.86,0,0,1-3-9.22.91.91,0,0,1,.07-.14,7.16,7.16,0,0,1,9.57-2.88,6.85,6.85,0,0,1,3.09,9.18l-.09.18A7.16,7.16,0,0,1,3918.21,946.25Z" fill="#7bcce6"/><path d="M3916.84,943.8A24.34,24.34,0,1,0,3882.9,938a24.78,24.78,0,0,0,3.75,4.17,23.74,23.74,0,0,0,5.95,3.86" fill="none" stroke="#a1f0ff" stroke-linecap="round" stroke-miterlimit="10" stroke-width="4.72"/><path d="M3894,942s-2.26,2.47-3.65,9l4.18-2.07a49.64,49.64,0,0,1,1.1-5.79Z" fill="#7bcce6"/><path d="M3918.77,946.51a6.87,6.87,0,0,1-4.32-6l-6,2.22,6.86,9.86Z" fill="#7bcce6"/><polygon points="3282.23 683.4 3293.48 686.01 3295.43 674.47 3246.69 605.46 3233.49 614.38 3282.23 683.4" fill="#8ae5f0"/><ellipse cx="3240.09" cy="609.92" rx="25.37" ry="24.82" fill="#8ae5f0"/><polygon points="3270.49 676.17 3278.09 677.33 3272.07 668.8 3270.49 676.17" fill="#8ae5f0"/><polygon points="3264.95 668.33 3272.56 669.49 3266.53 660.96 3264.95 668.33" fill="#8ae5f0"/><polygon points="3259.42 660.49 3267.02 661.65 3261 653.12 3259.42 660.49" fill="#8ae5f0"/><polygon points="3253.88 652.65 3261.49 653.81 3255.46 645.28 3253.88 652.65" fill="#8ae5f0"/><polygon points="3248.35 644.81 3255.95 645.97 3249.93 637.44 3248.35 644.81" fill="#8ae5f0"/><polygon points="3328.32 644.83 3340.34 641.88 3336.36 629.97 3258.91 589.88 3250.87 604.75 3328.32 644.83" fill="#7bcce6"/><polygon points="3313.51 643.64 3321.32 641.07 3311.29 635.87 3313.51 643.64" fill="#7bcce6"/><polygon points="3304.29 638.87 3312.1 636.29 3302.07 631.1 3304.29 638.87" fill="#7bcce6"/><polygon points="3295.07 634.1 3302.88 631.52 3292.85 626.33 3295.07 634.1" fill="#7bcce6"/><polygon points="3285.85 629.32 3293.66 626.75 3283.63 621.56 3285.85 629.32" fill="#7bcce6"/><polygon points="3276.63 624.55 3284.44 621.98 3274.41 616.78 3276.63 624.55" fill="#7bcce6"/><path d="M3238.45,618.89a27.47,27.47,0,0,0,36.73-11.07,26.31,26.31,0,0,0-10.72-35.63l-.6-.31A27.48,27.48,0,0,0,3227.13,583a26.32,26.32,0,0,0,10.8,35.62Zm4.57-18.2a6.84,6.84,0,0,1-3-9.2l.08-.16a7.15,7.15,0,0,1,9.56-2.89,6.85,6.85,0,0,1,3.09,9.18l-.09.18a7.16,7.16,0,0,1-9.64,2.89Z" fill="#7bcce6"/><path d="M3241.65,598.24a24.36,24.36,0,1,0-34-5.8,25.5,25.5,0,0,0,3.77,4.2,24.5,24.5,0,0,0,5.95,3.86" fill="none" stroke="#a1f0ff" stroke-linecap="round" stroke-miterlimit="10" stroke-width="4.72"/><path d="M3218.79,596.43s-2.27,2.48-3.66,9l4.18-2.07a54.2,54.2,0,0,1,1.1-5.79Z" fill="#7bcce6"/><path d="M3243.58,601a6.87,6.87,0,0,1-4.31-6l-6,2.21,6.85,9.86Z" fill="#7bcce6"/><polygon points="2373.97 1043.5 2362.72 1046.12 2360.77 1034.58 2409.51 965.57 2422.71 974.49 2373.97 1043.5" fill="#8ae5f0"/><ellipse cx="2416.11" cy="970.03" rx="25.37" ry="24.82" fill="#8ae5f0"/><polygon points="2385.71 1036.27 2378.11 1037.43 2384.13 1028.9 2385.71 1036.27" fill="#8ae5f0"/><polygon points="2391.25 1028.44 2383.64 1029.6 2389.67 1021.07 2391.25 1028.44" fill="#8ae5f0"/><polygon points="2396.78 1020.6 2389.18 1021.76 2395.2 1013.23 2396.78 1020.6" fill="#8ae5f0"/><polygon points="2402.32 1012.76 2394.72 1013.92 2400.74 1005.39 2402.32 1012.76" fill="#8ae5f0"/><polygon points="2407.86 1004.92 2400.25 1006.08 2406.28 997.55 2407.86 1004.92" fill="#8ae5f0"/><polygon points="2327.88 1004.94 2315.86 1001.98 2319.84 990.08 2397.3 949.99 2405.33 964.86 2327.88 1004.94" fill="#7bcce6"/><polygon points="2342.69 1003.75 2334.88 1001.17 2344.91 995.98 2342.69 1003.75" fill="#7bcce6"/><polygon points="2351.91 998.98 2344.1 996.4 2354.13 991.21 2351.91 998.98" fill="#7bcce6"/><polygon points="2361.13 994.21 2353.32 991.63 2363.35 986.44 2361.13 994.21" fill="#7bcce6"/><polygon points="2370.35 989.43 2362.54 986.86 2372.57 981.66 2370.35 989.43" fill="#7bcce6"/><polygon points="2379.57 984.66 2371.76 982.09 2381.8 976.89 2379.57 984.66" fill="#7bcce6"/><path d="M2429.07,943.06A27.47,27.47,0,0,0,2392.34,932a26.31,26.31,0,0,0-11.66,35.32l.32.61A27.46,27.46,0,0,0,2417.75,979a26.31,26.31,0,0,0,11.63-35.34C2429.28,943.46,2429.18,943.26,2429.07,943.06Zm-25.46,14.85a6.86,6.86,0,0,1,2.79-9.28l.16-.08a7.16,7.16,0,0,1,9.56,2.88,6.85,6.85,0,0,1-2.79,9.29l-.15.08A7.17,7.17,0,0,1,2403.61,957.91Z" fill="#7bcce6"/><path d="M2414.55,958.34a24.36,24.36,0,1,1,34-5.8,25.12,25.12,0,0,1-3.77,4.21,24.5,24.5,0,0,1-6,3.86" fill="none" stroke="#a1f0ff" stroke-linecap="round" stroke-miterlimit="10" stroke-width="4.72"/><path d="M2437.41,956.54s2.27,2.48,3.66,9l-4.18-2.07a54.2,54.2,0,0,0-1.1-5.79Z" fill="#7bcce6"/><path d="M2412.62,961.05a6.86,6.86,0,0,0,4.31-6l6,2.22-6.85,9.86Z" fill="#7bcce6"/></g></svg>
