<?xml version="1.0" standalone="no"?>
<!DOCTYPE svg PUBLIC "-//W3C//DTD SVG 20010904//EN"
 "http://www.w3.org/TR/2001/REC-SVG-20010904/DTD/svg10.dtd">
<svg version="1.0" xmlns="http://www.w3.org/2000/svg"
 width="500.000000pt" height="500.000000pt" viewBox="0 0 500.000000 500.000000"
 preserveAspectRatio="xMidYMid meet">
<metadata>
Created by potrace 1.11, written by Peter Selinger 2001-2013
</metadata>
<g transform="translate(0.000000,500.000000) scale(0.100000,-0.100000)"
fill="#000000" stroke="none">
<path d="M3379 3976 c-2 -2 -44 -6 -94 -10 -49 -3 -101 -8 -115 -10 -14 -2
-47 -7 -75 -11 -221 -29 -477 -97 -790 -209 -114 -41 -154 -37 -287 33 -165
85 -348 147 -493 166 -28 3 -64 8 -80 10 -111 15 -377 -5 -344 -26 8 -5 35 -9
60 -9 74 0 266 -38 376 -75 152 -51 322 -142 376 -203 37 -41 21 -59 -129
-146 -392 -229 -682 -455 -1027 -801 -259 -259 -461 -520 -650 -837 -98 -164
-124 -246 -65 -205 42 29 53 41 97 107 25 36 62 88 83 115 21 28 41 55 45 60
27 35 132 166 157 196 17 20 58 67 90 105 98 114 383 392 511 500 416 348 836
594 1335 784 192 73 477 159 610 184 14 2 45 9 70 14 25 6 63 13 85 16 23 4
52 8 65 11 14 3 52 8 85 11 33 3 89 10 125 14 68 9 507 6 550 -3 14 -3 48 -8
75 -11 84 -9 215 -36 310 -63 233 -67 411 -172 559 -330 63 -67 76 -75 76 -44
0 20 -57 134 -93 186 -105 150 -275 281 -468 360 -83 33 -252 81 -319 89 -19
2 -60 7 -90 11 -30 4 -66 9 -80 12 -31 6 -535 15 -541 9z"/>
<path d="M4650 3310 c-58 -14 -65 -97 -10 -125 48 -25 100 7 100 60 0 48 -41
78 -90 65z"/>
<path d="M970 2076 c0 -2 -45 -208 -101 -457 -105 -474 -105 -474 -115 -526
l-6 -33 51 -1 c65 -1 137 -1 155 0 12 1 23 40 42 141 2 8 17 76 34 150 17 74
46 203 65 285 18 83 34 144 35 138 2 -7 3 -16 4 -20 1 -5 6 -33 11 -63 5 -30
9 -57 10 -60 1 -4 12 -67 20 -110 13 -72 19 -107 20 -120 1 -8 8 -44 14 -80
13 -72 13 -72 31 -183 l13 -78 50 3 51 3 216 352 c118 194 218 353 221 353 3
0 -2 -33 -12 -72 -10 -40 -21 -87 -23 -104 -3 -17 -8 -37 -10 -45 -3 -8 -8
-25 -10 -39 -3 -14 -19 -90 -36 -170 -56 -254 -60 -274 -57 -276 4 -4 92 -6
278 -5 l185 1 49 85 49 85 222 0 221 0 12 -85 13 -85 104 -1 c147 0 237 0 287
1 l42 1 48 84 48 85 223 0 222 0 1 -22 c1 -13 7 -51 14 -85 l11 -63 218 0 218
0 22 98 c12 53 28 124 35 157 8 33 19 84 25 113 8 36 17 52 28 53 10 0 120 2
247 2 l229 2 17 67 c10 36 19 79 21 95 l3 28 -237 0 c-130 0 -240 3 -243 7 -4
4 3 52 15 108 l23 100 253 0 252 0 21 91 c12 50 21 92 21 95 0 2 -163 4 -363
4 l-362 0 -19 -87 c-10 -49 -25 -113 -32 -143 -7 -30 -15 -66 -18 -80 -2 -14
-19 -88 -36 -165 -18 -77 -33 -144 -34 -150 -9 -41 -16 -74 -20 -95 -2 -14
-12 -56 -21 -95 -10 -38 -19 -83 -22 -100 -5 -31 -20 -55 -20 -33 0 7 -6 45
-12 85 -7 40 -14 83 -16 95 -1 13 -15 95 -29 183 -15 88 -29 174 -32 190 -2
17 -9 53 -14 80 -5 28 -16 97 -25 155 -9 58 -18 117 -21 133 l-6 27 -138 0
-138 0 -104 -170 c-56 -94 -111 -183 -120 -198 -9 -15 -24 -41 -33 -59 -9 -18
-23 -37 -31 -44 -8 -6 -14 -15 -14 -20 0 -8 -174 -298 -210 -349 -9 -14 -25
-41 -35 -60 l-19 -35 -37 225 c-21 124 -40 241 -43 260 -3 19 -10 60 -15 90
-6 30 -13 69 -15 85 -7 45 -38 228 -41 245 -2 8 -4 18 -4 23 -1 4 -63 7 -138
7 l-138 0 -273 -448 c-327 -537 -324 -532 -318 -507 3 11 30 135 61 275 31
140 65 296 76 345 11 50 23 102 25 117 3 15 15 70 28 122 l23 96 -163 0 c-107
0 -164 -4 -164 -10 0 -6 -9 -23 -19 -38 -11 -15 -96 -153 -190 -307 -94 -153
-171 -277 -172 -275 -4 25 -11 64 -19 105 -5 28 -12 68 -15 90 -3 22 -20 128
-38 235 l-33 195 -152 3 c-84 1 -152 1 -152 -2z m1605 -277 c3 -24 7 -51 10
-59 2 -8 7 -44 10 -80 4 -36 8 -67 10 -70 1 -3 6 -32 9 -65 4 -33 9 -68 12
-77 3 -11 0 -19 -8 -19 -52 -5 -298 -3 -298 3 0 4 22 45 49 90 26 46 81 138
120 206 40 68 75 122 77 120 2 -3 6 -24 9 -49z m996 29 c0 -13 2 -30 3 -38 4
-19 19 -129 21 -155 1 -11 5 -33 8 -50 4 -16 9 -57 13 -90 3 -33 8 -62 9 -65
2 -3 -68 -5 -155 -5 l-159 0 26 45 c14 25 37 65 51 90 14 24 48 83 76 130 28
47 60 102 71 123 22 42 35 47 36 15z"/>
</g>
</svg>
