<svg xmlns="http://www.w3.org/2000/svg" width="135" height="40" viewBox="0 0 135 40"><title>appStore</title><path d="M130.2,40H4.73A4.75,4.75,0,0,1,0,35.27V4.73A4.73,4.73,0,0,1,4.73,0H130.2A4.81,4.81,0,0,1,135,4.73V35.27A4.81,4.81,0,0,1,130.2,40Z" transform="translate(0 0)" fill="#fefefe"/><path d="M134,35.27a3.82,3.82,0,0,1-3.83,3.83H4.73A3.84,3.84,0,0,1,.89,35.27V4.72A3.84,3.84,0,0,1,4.73.89H130.2A3.84,3.84,0,0,1,134,4.72Z" transform="translate(0 0)" fill="#fefefe"/><path d="M30.13,19.78a5.8,5.8,0,0,1,2.76-4.86,6,6,0,0,0-4.68-2.53c-2-.2-3.87,1.18-4.87,1.18s-2.57-1.16-4.23-1.12a6.21,6.21,0,0,0-5.24,3.19c-2.27,3.92-.58,9.69,1.59,12.86,1.09,1.55,2.36,3.29,4,3.23s2.23-1,4.19-1,2.51,1,4.21,1,2.84-1.56,3.89-3.13A13,13,0,0,0,33.53,25a5.61,5.61,0,0,1-3.42-5.16Zm-3.2-9.47a5.72,5.72,0,0,0,1.3-4.09,5.76,5.76,0,0,0-3.75,1.94,5.37,5.37,0,0,0-1.34,3.94A4.77,4.77,0,0,0,26.93,10.31Z" transform="translate(0 0)"/><path d="M53.65,31.5H51.38l-1.25-3.91H45.81L44.62,31.5H42.41l4.28-13.3h2.65ZM49.76,26l-1.13-3.47c-.12-.35-.34-1.19-.67-2.51h0c-.13.57-.34,1.41-.63,2.51L46.18,26Zm14.9.64a5.47,5.47,0,0,1-1.32,3.87,3.89,3.89,0,0,1-2.94,1.26,2.94,2.94,0,0,1-2.73-1.36h0v5.06H55.5V25.07c0-1,0-2.08-.08-3.16H57.3l.12,1.52h0a3.54,3.54,0,0,1,3.23-1.72,3.6,3.6,0,0,1,2.84,1.34,5.33,5.33,0,0,1,1.13,3.54Zm-2.17.08a4,4,0,0,0-.63-2.31,2.23,2.23,0,0,0-3.29-.48,2.41,2.41,0,0,0-.84,1.38,2.76,2.76,0,0,0-.1.64v1.61a2.58,2.58,0,0,0,.65,1.76,2.11,2.11,0,0,0,1.66.72,2.21,2.21,0,0,0,1.88-.92,4.08,4.08,0,0,0,.67-2.45Zm13.21-.08a5.47,5.47,0,0,1-1.32,3.87,3.92,3.92,0,0,1-2.95,1.26,2.92,2.92,0,0,1-2.72-1.36h0v5.06H66.54V25.07c0-1,0-2.08-.08-3.16h1.87l.12,1.52h0a3.55,3.55,0,0,1,3.24-1.72,3.6,3.6,0,0,1,2.84,1.34,5.33,5.33,0,0,1,1.13,3.54Zm-2.17.08a3.85,3.85,0,0,0-.64-2.31,2.14,2.14,0,0,0-1.89-1,2.21,2.21,0,0,0-1.43.52,2.41,2.41,0,0,0-.84,1.38,2.76,2.76,0,0,0-.1.64v1.61a2.52,2.52,0,0,0,.64,1.76A2.13,2.13,0,0,0,71,30a2.19,2.19,0,0,0,1.87-.92,4.08,4.08,0,0,0,.67-2.45ZM88,27.77a3.59,3.59,0,0,1-1.18,2.77,5.3,5.3,0,0,1-3.63,1.16,6.31,6.31,0,0,1-3.45-.83l.5-1.77a5.86,5.86,0,0,0,3.08.85,3,3,0,0,0,1.88-.55,1.79,1.79,0,0,0,.71-1.4,1.84,1.84,0,0,0-.56-1.36,5,5,0,0,0-1.83-1Q80,24.26,80,21.74a3.4,3.4,0,0,1,1.23-2.69A4.81,4.81,0,0,1,84.51,18a6.46,6.46,0,0,1,3,.64L87,20.37a5.35,5.35,0,0,0-2.54-.61,2.55,2.55,0,0,0-1.76.56,1.56,1.56,0,0,0-.53,1.2,1.59,1.59,0,0,0,.61,1.3,7.09,7.09,0,0,0,1.93,1,6.58,6.58,0,0,1,2.53,1.62A3.37,3.37,0,0,1,88,27.78Zm7-4.26H92.74v4.66c0,1.18.41,1.77,1.24,1.77a3.74,3.74,0,0,0,1-.1l0,1.62a4.67,4.67,0,0,1-1.66.24,2.61,2.61,0,0,1-2-.77,3.81,3.81,0,0,1-.71-2.59V23.51h-1.4v-1.6h1.4V20.15l2.1-.63v2.39h2.35v1.6Zm10.6,3.12a5.28,5.28,0,0,1-1.26,3.63,4.51,4.51,0,0,1-3.52,1.46,4.29,4.29,0,0,1-3.36-1.4,5,5,0,0,1-1.26-3.53,5.23,5.23,0,0,1,1.3-3.66A4.49,4.49,0,0,1,101,21.71a4.42,4.42,0,0,1,3.4,1.4A5.09,5.09,0,0,1,105.6,26.63Zm-2.21.07a4.32,4.32,0,0,0-.57-2.28A2.1,2.1,0,0,0,101,23.27a2.14,2.14,0,0,0-2,1.15A4.88,4.88,0,0,0,99,29a2.18,2.18,0,0,0,3.85,0,4.28,4.28,0,0,0,.59-2.29Zm9.14-2.92a3.79,3.79,0,0,0-.67-.06,2,2,0,0,0-1.74.85,3.28,3.28,0,0,0-.53,1.9v5h-2.13V24.9c0-1.11,0-2.11-.08-3h1.85l.08,1.83h.06a3.28,3.28,0,0,1,1.07-1.52A2.61,2.61,0,0,1,112,21.7h.53v2Zm9.54,2.47a4.77,4.77,0,0,1-.08,1h-6.4a2.84,2.84,0,0,0,.93,2.17,3.16,3.16,0,0,0,2.09.67,7.17,7.17,0,0,0,2.59-.45l.33,1.48a8.2,8.2,0,0,1-3.21.59,4.68,4.68,0,0,1-3.51-1.31,4.84,4.84,0,0,1-1.27-3.53,5.49,5.49,0,0,1,1.18-3.61,4.09,4.09,0,0,1,3.36-1.54,3.57,3.57,0,0,1,3.14,1.54,5.24,5.24,0,0,1,.85,3Zm-2-.55a2.85,2.85,0,0,0-.41-1.64,1.86,1.86,0,0,0-1.7-.89,2,2,0,0,0-1.7.87,3.22,3.22,0,0,0-.63,1.66Z" transform="translate(0 0)"/><path d="M49.05,10a3.28,3.28,0,0,1-1,2.67,4.15,4.15,0,0,1-2.78.82,11.35,11.35,0,0,1-1.54-.08V7a12.15,12.15,0,0,1,1.81-.13,3.94,3.94,0,0,1,2.59.74A3,3,0,0,1,49.05,10Zm-1.11,0a2.41,2.41,0,0,0-.6-1.76,2.35,2.35,0,0,0-1.77-.61,4.07,4.07,0,0,0-.85.07v4.89a4.21,4.21,0,0,0,.71,0A2.53,2.53,0,0,0,47.29,12,2.7,2.7,0,0,0,47.94,10Zm7,1a2.62,2.62,0,0,1-.62,1.78,2.23,2.23,0,0,1-1.73.72,2.1,2.1,0,0,1-1.65-.69,2.51,2.51,0,0,1-.62-1.73A2.53,2.53,0,0,1,51,9.28a2.21,2.21,0,0,1,1.71-.7,2.16,2.16,0,0,1,1.67.69A2.54,2.54,0,0,1,54.94,11Zm-1.09,0a2.1,2.1,0,0,0-.31-1,1,1,0,0,0-.94-.56,1,1,0,0,0-1,.56,2.17,2.17,0,0,0-.28,1.14,2.1,2.1,0,0,0,.28,1.12,1.07,1.07,0,0,0,1.45.44,1,1,0,0,0,.44-.44,2.12,2.12,0,0,0,.29-1.13Zm8.94-2.35-1.47,4.71h-1l-.61-2a15.54,15.54,0,0,1-.38-1.53h0A11.4,11.4,0,0,1,59,11.36l-.65,2h-1L55.94,8.72H57L57.55,11c.13.53.23,1,.32,1.51h0a15,15,0,0,1,.38-1.5l.67-2.25h.86l.64,2.2c.15.54.28,1.06.38,1.55h0c.08-.52.19-1,.32-1.55l.58-2.2h1Zm5.44,4.71h-1v-2.7c0-.83-.32-1.25-1-1.25a1,1,0,0,0-.76.35,1.26,1.26,0,0,0-.29.81v2.79H64.1V8.72H65l0,.73h0a1.55,1.55,0,0,1,.54-.57,1.85,1.85,0,0,1,1-.26,1.48,1.48,0,0,1,1.09.43,2,2,0,0,1,.55,1.56v2.75Zm2.89,0H70V6.56h1ZM77.26,11a2.62,2.62,0,0,1-.62,1.78,2.23,2.23,0,0,1-1.73.72,2.1,2.1,0,0,1-1.65-.69,2.51,2.51,0,0,1-.62-1.73,2.53,2.53,0,0,1,.64-1.8A2.22,2.22,0,0,1,75,8.62a2.16,2.16,0,0,1,1.67.69,2.54,2.54,0,0,1,.6,1.73Zm-1.09,0a2.18,2.18,0,0,0-.28-1A1,1,0,0,0,75,9.39,1,1,0,0,0,74,10a2.17,2.17,0,0,0-.28,1.14A2.11,2.11,0,0,0,74,12.21a1.07,1.07,0,0,0,1.45.44,1,1,0,0,0,.44-.44,2.12,2.12,0,0,0,.29-1.13Zm6.16,2.36h-.94l-.08-.54h0a1.62,1.62,0,0,1-1.38.65A1.4,1.4,0,0,1,78.86,13a1.33,1.33,0,0,1-.37-1,1.48,1.48,0,0,1,.72-1.32,3.76,3.76,0,0,1,2-.44v0c0-.62-.32-.93-1-.93A2.25,2.25,0,0,0,79,9.72L78.79,9a3,3,0,0,1,1.62-.41c1.23,0,1.85.65,1.85,2v1.74a7,7,0,0,0,.07,1.12Zm-1.09-1.62V11c-1.15,0-1.73.29-1.73,1a.7.7,0,0,0,.2.55.73.73,0,0,0,.51.18,1,1,0,0,0,.64-.22.91.91,0,0,0,.37-.55.61.61,0,0,0,0-.19Zm7.05,1.62h-.93v-.75h0a1.6,1.6,0,0,1-1.52.86,1.76,1.76,0,0,1-1.41-.67,2.57,2.57,0,0,1-.56-1.73,2.73,2.73,0,0,1,.61-1.86,1.84,1.84,0,0,1,1.45-.66,1.41,1.41,0,0,1,1.33.64h0V6.56h1v6.87Zm-1.09-2v-.78a1.82,1.82,0,0,0,0-.33,1.24,1.24,0,0,0-.38-.64,1,1,0,0,0-.7-.25,1.05,1.05,0,0,0-.92.46A2,2,0,0,0,84.86,11a1.87,1.87,0,0,0,.32,1.14,1.09,1.09,0,0,0,.92.47,1,1,0,0,0,.83-.39,1.3,1.3,0,0,0,.3-.87Zm10-.4a2.62,2.62,0,0,1-.62,1.78,2.23,2.23,0,0,1-1.73.72,2.1,2.1,0,0,1-1.65-.69A2.51,2.51,0,0,1,92.58,11a2.53,2.53,0,0,1,.64-1.8A2.21,2.21,0,0,1,95,8.62a2.16,2.16,0,0,1,1.67.69,2.54,2.54,0,0,1,.6,1.73Zm-1.09,0a2.15,2.15,0,0,0-.23-1,1,1,0,0,0-.94-.56A1.07,1.07,0,0,0,94,10a2.17,2.17,0,0,0-.28,1.14A2.11,2.11,0,0,0,94,12.21a1.07,1.07,0,0,0,1.45.44,1,1,0,0,0,.44-.44,2.12,2.12,0,0,0,.29-1.13Zm6.72,2.36h-1v-2.7c0-.83-.32-1.25-1-1.25a.93.93,0,0,0-.76.35,1.26,1.26,0,0,0-.29.81v2.79h-1V8.72h.92v.73h0a1.55,1.55,0,0,1,.54-.57,1.89,1.89,0,0,1,1-.26,1.5,1.5,0,0,1,1.1.43,2.08,2.08,0,0,1,.54,1.56v2.71Zm7.06-3.93h-1.16v2.29c0,.59.21.88.61.88a1.83,1.83,0,0,0,.47-.05v.79a2.27,2.27,0,0,1-.82.12,1.25,1.25,0,0,1-1-.38,1.87,1.87,0,0,1-.35-1.27V9.5H107V8.72h.69V7.86l1-.31V8.72h1.16Zm5.54,3.93h-1V10.75c0-.84-.31-1.27-.94-1.27a1,1,0,0,0-1,.74,1.21,1.21,0,0,0,0,.38v2.83h-1V6.56h1V9.4h0a1.57,1.57,0,0,1,1.41-.78,1.42,1.42,0,0,1,1.08.43,2.08,2.08,0,0,1,.53,1.58v2.8Zm5.73-2.58a3.84,3.84,0,0,1,0,.48H118a1.38,1.38,0,0,0,.45,1.07,1.58,1.58,0,0,0,1,.33,3.48,3.48,0,0,0,1.27-.23l.16.73a4.06,4.06,0,0,1-1.58.29,2.29,2.29,0,0,1-1.72-.64A2.39,2.39,0,0,1,117,11a2.67,2.67,0,0,1,.58-1.78,2,2,0,0,1,1.65-.76,1.78,1.78,0,0,1,1.54.76,2.5,2.5,0,0,1,.42,1.48Zm-1-.27a1.34,1.34,0,0,0-.21-.8.91.91,0,0,0-.83-.44,1,1,0,0,0-.83.43,1.47,1.47,0,0,0-.31.81Z" transform="translate(0 0)"/></svg>