<svg xmlns="http://www.w3.org/2000/svg" xmlns:xlink="http://www.w3.org/1999/xlink" width="135.3" height="39.68" viewBox="0 0 135.3 39.68"><defs><linearGradient id="a" x1="30.74" y1="1150.64" x2="13.96" y2="1133.86" gradientTransform="translate(-8.99 -1108.21) scale(1 0.99)" gradientUnits="userSpaceOnUse"><stop offset="0" stop-color="#00a0ff"/><stop offset="0.01" stop-color="#00a1ff"/><stop offset="0.26" stop-color="#00beff"/><stop offset="0.51" stop-color="#00d2ff"/><stop offset="0.76" stop-color="#00dfff"/><stop offset="1" stop-color="#00e3ff"/></linearGradient><linearGradient id="b" x1="42.81" y1="1139.43" x2="18.61" y2="1139.43" gradientTransform="translate(-8.99 -1108.21) scale(1 0.99)" gradientUnits="userSpaceOnUse"><stop offset="0" stop-color="#ffe000"/><stop offset="0.41" stop-color="#ffbd00"/><stop offset="0.78" stop-color="orange"/><stop offset="1" stop-color="#ff9c00"/></linearGradient><linearGradient id="c" x1="25.43" y1="1145.39" x2="2.68" y2="1122.63" gradientTransform="translate(-8.99 -1108.21) scale(1 0.99)" gradientUnits="userSpaceOnUse"><stop offset="0" stop-color="#ff3a44"/><stop offset="1" stop-color="#c31162"/></linearGradient><linearGradient id="d" x1="8.01" y1="1150.88" x2="18.17" y2="1140.72" gradientTransform="translate(-8.99 -1108.21) scale(1 0.99)" gradientUnits="userSpaceOnUse"><stop offset="0" stop-color="#32a071"/><stop offset="0.07" stop-color="#2da771"/><stop offset="0.48" stop-color="#15cf74"/><stop offset="0.8" stop-color="#06e775"/><stop offset="1" stop-color="#00f076"/></linearGradient></defs><title>googlePlay</title><path d="M130.31,39.63H5a5,5,0,0,1-5-4.94V5A5,5,0,0,1,5,0H130.3a5,5,0,0,1,5,5V34.69a5,5,0,0,1-5,5Z" transform="translate(0 0.04)" fill="#fefefe"/><path d="M47.53,10.15a2.7,2.7,0,0,1-.74,2,3,3,0,0,1-2.22.88,3.09,3.09,0,0,1-2.21-.89,3,3,0,0,1-.91-2.22,3.09,3.09,0,0,1,3.12-3.13,3.13,3.13,0,0,1,1.2.27,2.34,2.34,0,0,1,1,.63l-.52.52a2,2,0,0,0-1.65-.7A2.3,2.3,0,0,0,43,8.17a2.25,2.25,0,0,0-.68,1.71A2.27,2.27,0,0,0,43,11.6a2.37,2.37,0,0,0,1.65.65,2.29,2.29,0,0,0,1.68-.66,1.85,1.85,0,0,0,.5-1.2H44.57v-.7h2.91a1.69,1.69,0,0,1,0,.45Z" transform="translate(0 0.04)" stroke="#fff" stroke-miterlimit="10" stroke-width="0.16"/><path d="M52.15,7.69H49.42V9.55h2.46v.72H49.42v1.88h2.73v.73H48.64V6.94h3.51Z" transform="translate(0 0.04)" stroke="#fff" stroke-miterlimit="10" stroke-width="0.16"/><path d="M55.41,12.88h-.78V7.69H53V6.94h4.13v.75H55.41Z" transform="translate(0 0.04)" stroke="#fff" stroke-miterlimit="10" stroke-width="0.16"/><path d="M60.08,12.88V6.94h.77v5.94Z" transform="translate(0 0.04)" stroke="#fff" stroke-miterlimit="10" stroke-width="0.16"/><path d="M64.28,12.88h-.77V7.69H61.83V6.94H66v.75H64.28v5.19Z" transform="translate(0 0.04)" stroke="#fff" stroke-miterlimit="10" stroke-width="0.16"/><path d="M73.77,12.12a3.15,3.15,0,0,1-4.41,0,3,3,0,0,1-.88-2.21,3,3,0,0,1,.89-2.22,3.16,3.16,0,0,1,4.4,0,3.07,3.07,0,0,1,.89,2.2A3,3,0,0,1,73.77,12.12Zm-3.83-.5a2.3,2.3,0,0,0,3.93-1.71A2.33,2.33,0,0,0,73.2,8.2a2.26,2.26,0,0,0-1.63-.66,2.28,2.28,0,0,0-1.64.66,2.33,2.33,0,0,0-.67,1.71,2.33,2.33,0,0,0,.67,1.71Z" transform="translate(0 0.04)" stroke="#fff" stroke-miterlimit="10" stroke-width="0.16"/><path d="M75.77,12.88V6.94h.94l2.93,4.62h0V6.94h.77v5.94H79.6L76.52,8h0v4.85Z" transform="translate(0 0.04)" stroke="#fff" stroke-miterlimit="10" stroke-width="0.16"/><path d="M68.3,21.56a4.22,4.22,0,1,0,.13,0Zm0,6.76a2.56,2.56,0,1,1,2.41-2.71v.16a2.46,2.46,0,0,1-2.35,2.55ZM59,21.56a4.21,4.21,0,1,0,.15,0Zm0,6.76a2.56,2.56,0,1,1,2.41-2.71v.16A2.46,2.46,0,0,1,59,28.32Zm-11.1-5.47v1.84h4.32a3.72,3.72,0,0,1-1,2.25,4.5,4.5,0,0,1-3.35,1.3,4.76,4.76,0,0,1,0-9.51A4.61,4.61,0,0,1,51.09,20l1.3-1.32a6.36,6.36,0,0,0-4.54-1.81,6.69,6.69,0,0,0-6.72,6.55A6.67,6.67,0,0,0,47.85,30a6.1,6.1,0,0,0,4.62-1.83A5.82,5.82,0,0,0,54,24a5.25,5.25,0,0,0-.1-1.12H47.86Zm45.41,1.39a4,4,0,0,0-3.65-2.68,4,4,0,0,0-4,4c0,.08,0,.15,0,.22A4.15,4.15,0,0,0,89.71,30h.14a4.26,4.26,0,0,0,3.56-1.87l-1.46-1a2.43,2.43,0,0,1-2.1,1.16,2.17,2.17,0,0,1-2.08-1.22l5.7-2.36-.2-.48Zm-5.81,1.45a2.32,2.32,0,0,1,2.17-2.46h.05a1.67,1.67,0,0,1,1.59.9Zm-4.64,4H84.7V17.34H82.82Zm-3-7.2h-.06a3,3,0,0,0-2.24-.93,4.21,4.21,0,1,0,0,8.42A2.92,2.92,0,0,0,79.71,29h.06v.6a2.17,2.17,0,0,1-2.27,2.48,2.35,2.35,0,0,1-2.15-1.51l-1.63.67a4.07,4.07,0,0,0,3.78,2.49c2.2,0,4-1.27,4-4.38V21.81H79.77Zm-2.14,5.83a2.56,2.56,0,0,1,0-5.11,2.38,2.38,0,0,1,2.28,2.49v.08a2.36,2.36,0,0,1-2.19,2.53h-.09Zm24.44-11H97.56V29.69h1.88V25h2.61a3.85,3.85,0,0,0,.39-7.69,2.54,2.54,0,0,0-.39,0Zm0,6H99.43V19.07h2.67a2.12,2.12,0,1,1,0,4.24h0Zm11.55-1.78a3.51,3.51,0,0,0-3.33,1.9l1.66.69a1.77,1.77,0,0,1,1.71-.91,1.8,1.8,0,0,1,2,1.58h0v.13a4.22,4.22,0,0,0-2-.48c-1.78,0-3.6,1-3.6,2.79a2.88,2.88,0,0,0,3,2.73h.1a2.65,2.65,0,0,0,2.38-1.21h.07v1h1.8V25c0-2.2-1.66-3.43-3.81-3.43Zm-.22,6.79c-.61,0-1.47-.3-1.47-1,0-1,1.07-1.33,2-1.33a3.39,3.39,0,0,1,1.71.42,2.27,2.27,0,0,1-2.23,2ZM124,21.81l-2.15,5.37h-.06l-2.22-5.37h-2l3.34,7.51L119,33.49h2l5.14-11.68Zm-16.82,7.88h1.87V17.34h-1.87Z" transform="translate(0 0.04)"/><path d="M10.46,7.47A2,2,0,0,0,10,8.87V30.78a2,2,0,0,0,.47,1.39l.07.07L23,20v-.27L10.53,7.4Z" transform="translate(0 0.04)" fill="url(#a)"/><path d="M27.09,24.06,23,20v-.27l4.14-4.09h.1l4.9,2.76c1.4.79,1.4,2.07,0,2.86L27.19,24Z" transform="translate(0 0.04)" fill="url(#b)"/><path d="M27.19,24,23,19.82,10.46,32.17a1.66,1.66,0,0,0,2.08.06L27.19,24" transform="translate(0 0.04)" fill="url(#c)"/><path d="M27.19,15.63,12.54,7.41a1.66,1.66,0,0,0-2.08.06L23,19.82Z" transform="translate(0 0.04)" fill="url(#d)"/></svg>