<svg xmlns="http://www.w3.org/2000/svg" width="760.18" height="108.27" viewBox="0 0 760.18 108.27"><path d="M155.32,433.65a30.41,30.41,0,0,1,10-.87,53.61,53.61,0,0,1,25.14,7.38c3.21,1.88,5.89,1.83,9.27.49a125.82,125.82,0,0,1,60.78-8.2c11.15,1.23,21.55,4.7,29.68,13.06a30.14,30.14,0,0,1,6.75,11c-.85.69-1.13.12-1.41-.21C288,447,277.65,442.78,266.2,440.78c-18.61-3.26-36.83-.94-54.63,4.61-38.3,11.93-68.13,35.37-91,68-2.07,3-2.33,3.3-4.52,4.3-.16-2.22,1.08-3.87,2-5.53a157,157,0,0,1,23.11-31.05c12.66-13.15,26.7-24.54,42.84-33.24,2.76-1.49,2.85-2.64.2-4.58-7.57-5.55-16.21-8.15-25.44-9.06-.9-.09-1.8-.07-2.7-.11C156,434.1,155.92,434,155.32,433.65Z" transform="translate(-116 -431.67)" fill="#1590a5"/><path d="M285.93,461.19c-1.67-.31-2.73-1.16-2.64-2.83a2.57,2.57,0,0,1,5.13.06C288.49,460.14,287.34,460.86,285.93,461.19Z" transform="translate(-116 -431.67)" fill="#de0a25"/><path d="M387.79,538.5l-2-13.56H351.43l-8,13.56H323.11l48.6-80h21.36l13.2,80Zm-8.28-63-20,34.44h24.84Z" transform="translate(-116 -431.67)" fill="#1590a5"/><path d="M431.42,480.54l-7.8,34.92a17.35,17.35,0,0,0-.48,3.48c0,5.28,4.32,7.44,9.72,7.44s10.44-3.6,13.8-6.84l8.64-39h15.24l-12.84,58H442.46l1.68-7.56c-4.56,4.32-10.8,9-19.32,9-11.16,0-18.12-5.88-18.12-14.88a33.33,33.33,0,0,1,.6-4.68l8.76-39.84Z" transform="translate(-116 -431.67)" fill="#1590a5"/><path d="M470.24,527.34a18.39,18.39,0,0,1,.48-4l6.48-29.64h-9.6l3-13.2h9.6l3.48-15.84H499l-3.48,15.84h11.76l-3.12,13.2H492.44l-5.52,25.2a16.26,16.26,0,0,0-.24,2.4c0,3.12,1.8,5,5.64,5a7.93,7.93,0,0,0,4.2-1.2l.6,12.24a17.77,17.77,0,0,1-9.6,2.52C477.2,539.94,470.24,536,470.24,527.34Z" transform="translate(-116 -431.67)" fill="#1590a5"/><path d="M498.73,513.66c0-18.12,13.92-34.56,33.48-34.56,18.48,0,28.8,11.28,28.8,26.4,0,18-13.92,34.44-33.6,34.44C508.93,539.94,498.73,528.78,498.73,513.66Zm46.44-7.44c0-8.4-5-13.56-13.44-13.56-10.32,0-17.28,9.84-17.28,20.16,0,8.4,5,13.56,13.56,13.56C538.21,526.38,545.17,516.66,545.17,506.22Z" transform="translate(-116 -431.67)" fill="#1590a5"/><path d="M628.61,538.5l7.8-35a23.56,23.56,0,0,0,.48-3.84c0-4.44-3.84-7-8.28-7-4.68,0-9.12,3.36-12.12,6.72L608,538.5H592.62l7.79-35a20.78,20.78,0,0,0,.6-4.2c-.12-3.72-3.12-6.6-8.51-6.6-4.57,0-9,3.48-11.88,6.72L572,538.5H556.74l12.84-58h15.24l-1.69,7.56c3.25-3.48,9.12-9,17.64-9,11.4,0,16,8.28,16,10.44v.24c4.56-5.64,11.16-10.68,20-10.68s16.56,5.28,16.56,14.76a24.82,24.82,0,0,1-.6,4.8L644,538.5Z" transform="translate(-116 -431.67)" fill="#1590a5"/><path d="M652.13,513.66c0-18.12,13.92-34.56,33.48-34.56,18.48,0,28.8,11.28,28.8,26.4,0,18-13.92,34.44-33.6,34.44C662.33,539.94,652.13,528.78,652.13,513.66Zm46.44-7.44c0-8.4-5-13.56-13.44-13.56-10.32,0-17.28,9.84-17.28,20.16,0,8.4,5,13.56,13.56,13.56C691.61,526.38,698.57,516.66,698.57,506.22Z" transform="translate(-116 -431.67)" fill="#1590a5"/><path d="M727.06,530.82l-1.68,7.68H710.14l17.64-80H743l-6.48,29.28c4.92-5.76,10.56-8.64,17.52-8.64,13,0,22,8.64,22,24,0,17.4-10.8,36.84-30.48,36.84C737.62,539.94,730.9,536.58,727.06,530.82Zm33-24.6c0-8.28-5.52-13.56-12.84-13.56-5.4,0-10.08,3-13.32,7l-4.44,20.16c2.52,3.84,7.44,6.6,13.56,6.6C753.1,526.38,760.06,516.9,760.06,506.22Z" transform="translate(-116 -431.67)" fill="#1590a5"/><path d="M771.75,538.5l12.84-58h15.24L787,538.5Zm14.52-72a10.34,10.34,0,0,1,10.2-10.32c4.8,0,8.28,3.48,8.28,7.8a10.37,10.37,0,0,1-10.32,10.32A7.87,7.87,0,0,1,786.27,466.5Z" transform="translate(-116 -431.67)" fill="#1590a5"/><path d="M793.24,538.5l17.64-80h15.24l-17.64,80Z" transform="translate(-116 -431.67)" fill="#1590a5"/><path d="M816.66,513.9c0-18.84,14.16-34.8,33.48-34.8,14.76,0,26,9.72,26,25.92a37.85,37.85,0,0,1-1.2,9.36H831.9v1.44c0,4.92,5.16,12,15.84,12,5,0,11-1.56,14.64-4.32l4.8,10.44a37.71,37.71,0,0,1-20.52,6C828.42,539.94,816.66,530.1,816.66,513.9Zm45.84-9.84v-1.2c0-5.76-4.08-11.64-13.32-11.64-8.16,0-14.4,6.48-15.72,12.84Z" transform="translate(-116 -431.67)" fill="#1590a5"/><path d="M175.34,538.5l5.94-26.94L164.82,538.5h-3.48l-4.59-26.94-5.93,26.94h-8l8.24-37.35H162l3.86,23.35,14.28-23.35h11.48l-8.23,37.35Z" transform="translate(-116 -431.67)" fill="#1590a5"/><path d="M213.05,538.5l-1-6.33h-16l-3.75,6.33h-9.47l22.68-37.35h10l6.16,37.35Zm-3.87-29.4-9.35,16.07h11.59Z" transform="translate(-116 -431.67)" fill="#1590a5"/><path d="M249.4,538.5l-1-6.33h-16l-3.75,6.33h-9.46l22.68-37.35h10L258,538.5Zm-3.86-29.4-9.35,16.07h11.59Z" transform="translate(-116 -431.67)" fill="#1590a5"/><path d="M257.39,538.5l8.23-37.35h26.43l-1.57,7H272.06L270.32,516h18l-1.57,7h-18l-3.42,15.46Z" transform="translate(-116 -431.67)" fill="#1590a5"/></svg>
